<?xml version="1.0" encoding="utf-8"?>
<!-- Generator: Adobe Illustrator 23.0.1, SVG Export Plug-In . SVG Version: 6.00 Build 0)  -->
<svg version="1.1" id="Layer_1" xmlns="http://www.w3.org/2000/svg" xmlns:xlink="http://www.w3.org/1999/xlink" x="0px" y="0px"
	 viewBox="0 0 15 15" style="enable-background:new 0 0 15 15;" xml:space="preserve">
<style type="text/css">
	.st0{fill:#58595B;}
</style>
<g id="Layer_52">
	<path class="st0" d="M12.5,0H3.1C1.8,0,0.7,1,0.7,2.3c0,0,0,0.1,0,0.1v10.7h6.1V8.5h2.2v4.7H15V2.5C15,1.2,14,0,12.7,0
		C12.6,0,12.6,0,12.5,0z M13.3,11.6h-2.8V6.9H5.1v4.7H2.3V2.5c0-0.4,0.3-0.8,0.7-0.8c0,0,0.1,0,0.2,0h9.4c0.4,0,0.8,0.3,0.8,0.7
		c0,0,0,0.1,0,0.1V11.6z M10.3,2.5L9.2,6.1H8.5L7.9,4L7.1,6.1H6.5L5.3,2.5h1L7,4.6l0.6-1.5L7.4,2.5h1L9,4.6l0.7-2.1H10.3z"/>
</g>
</svg>
