<?xml version="1.0" encoding="utf-8"?>
<!-- Generator: Adobe Illustrator 23.0.1, SVG Export Plug-In . SVG Version: 6.00 Build 0)  -->
<svg version="1.1" id="Layer_1" xmlns="http://www.w3.org/2000/svg" xmlns:xlink="http://www.w3.org/1999/xlink" x="0px" y="0px"
	 viewBox="0 0 15 15" style="enable-background:new 0 0 15 15;" xml:space="preserve">
<style type="text/css">
	.st0{clip-path:url(#SVGID_2_);fill:#58595B;}
</style>
<g>
	<g>
		<defs>
			<rect id="SVGID_1_" y="0" width="14.2" height="15"/>
		</defs>
		<clipPath id="SVGID_2_">
			<use xlink:href="#SVGID_1_"  style="overflow:visible;"/>
		</clipPath>
		<path class="st0" d="M0,13.3h1c0.1-0.4,0.2-0.8,0.5-1.1H0V13.3z"/>
		<path class="st0" d="M5.3,13.3h3.4c0.1-0.4,0.2-0.8,0.5-1.1H4.8C5.1,12.5,5.2,12.9,5.3,13.3"/>
		<path class="st0" d="M3.1,12.2c-0.8,0-1.4,0.6-1.4,1.4c0,0.8,0.6,1.4,1.4,1.4c0.8,0,1.4-0.6,1.4-1.4C4.5,12.8,3.9,12.2,3.1,12.2"
			/>
		<path class="st0" d="M13.1,7.6h-2.2V4.2h1.2c0.8,0,1,0.3,1,1.1V7.6z M9.9,10.4H1V1h8.8V10.4z M12.5,3.1h-1.6V0H0v11.4h10.9
			c1.1,0,2,0.9,2.2,1.9h1.1V5C14.2,3.8,13.6,3.1,12.5,3.1"/>
		<path class="st0" d="M10.9,12.2c-0.8,0-1.4,0.6-1.4,1.4c0,0.8,0.6,1.4,1.4,1.4c0.8,0,1.4-0.6,1.4-1.4
			C12.3,12.8,11.7,12.2,10.9,12.2"/>
		<polygon class="st0" points="9.1,3.4 7.3,5 6,5 7.9,3.4 6,1.8 7.3,1.8 		"/>
	</g>
</g>
</svg>
