<?xml version="1.0" encoding="utf-8"?>
<!-- Generator: Adobe Illustrator 23.0.1, SVG Export Plug-In . SVG Version: 6.00 Build 0)  -->
<svg version="1.1" id="Layer_1" xmlns="http://www.w3.org/2000/svg" xmlns:xlink="http://www.w3.org/1999/xlink" x="0px" y="0px"
	 viewBox="0 0 15 15" style="enable-background:new 0 0 15 15;" xml:space="preserve">
<style type="text/css">
	.st0{clip-path:url(#SVGID_2_);fill:#58595B;}
</style>
<g>
	<g>
		<defs>
			<rect id="SVGID_1_" x="0.4" width="14.6" height="14.6"/>
		</defs>
		<clipPath id="SVGID_2_">
			<use xlink:href="#SVGID_1_"  style="overflow:visible;"/>
		</clipPath>
		<path class="st0" d="M15,0H3.1v4.3H2L0.4,5.9v2.3l2.3-2.3H6c0.3,0,0.6,0.2,0.6,0.5C6.6,6.8,6.4,7,6,7H2.9l2.8,2.8
			c0.4,0.4,0.5,0.5,0.5,0.7c0,0.3-0.2,0.5-0.8,1.1l-0.4,0.4c-0.6,0.6-0.9,0.8-1.1,0.8h0c-0.2,0-0.4-0.1-0.7-0.5L0.4,9.8v2.3l1.5,1.5
			c0.4,0.4,1,1,1.9,1h0c0.9,0,1.5-0.6,2.3-1.3l0.4-0.4c0.3-0.3,0.6-0.6,0.8-0.9H15V0z M13.4,10.3H7.8C7.7,9.6,7.2,9.1,6.8,8.7
			L6.7,8.5c0.9-0.3,1.5-1.1,1.5-2.1c0-1.2-1-2.2-2.2-2.2H4.7V1.6h8.7V10.3z"/>
	</g>
</g>
</svg>
