<?xml version="1.0" encoding="utf-8"?>
<!-- Generator: Adobe Illustrator 23.0.1, SVG Export Plug-In . SVG Version: 6.00 Build 0)  -->
<svg version="1.1" id="Layer_1" xmlns="http://www.w3.org/2000/svg" xmlns:xlink="http://www.w3.org/1999/xlink" x="0px" y="0px"
	 viewBox="0 0 262.3 334.1" style="enable-background:new 0 0 262.3 334.1;" xml:space="preserve">
<style type="text/css">
	.st0{fill:#333333;}
	.st1{fill:none;}
	.st2{fill:#FFFFFF;}
	.st3{enable-background:new    ;}
	.st4{fill:none;stroke:#FFFFFF;stroke-miterlimit:10;}
	.st5{fill:#CD2E31;}
</style>
<g>
	<rect class="st0" width="262.3" height="334.1"/>
</g>
<rect x="29.4" y="16.9" class="st1" width="491.6" height="59.1"/>
<g>
	<g>
		<path class="st2" d="M39.9,32.1c-9.8,0-17.7,7.9-17.7,17.7s7.9,17.7,17.7,17.7s17.7-7.9,17.7-17.7S49.7,32.1,39.9,32.1z
			 M39.9,63.9c-7.8,0-14.1-6.3-14.1-14.1s6.3-14.1,14.1-14.1S54,41.9,54,49.8C54,57.5,47.6,63.8,39.9,63.9L39.9,63.9z"/>
		<rect x="33.3" y="24.6" class="st2" width="13.1" height="3.6"/>
		<path class="st2" d="M43.6,48.4c-0.1-0.2-0.2-0.4-0.2-0.6l5.9-5.7l-1.7-1.7L41.7,46l-0.5-0.2l-0.6-0.2l-0.7-0.1
			c-2.2,0-3.9,1.7-3.9,3.9c0,2.2,1.7,3.9,3.9,3.9s3.9-1.7,3.9-3.9c0-0.2-0.1-0.2-0.1-0.3C43.7,48.8,43.6,48.7,43.6,48.4z M38.2,49.5
			c0-0.3,0.1-0.5,0.2-0.8c0.3-0.5,0.9-0.9,1.4-0.9h0.1c0.9,0,1.6,0.8,1.6,1.6c0,0.6-0.3,1.2-0.9,1.4c-0.2,0.2-0.5,0.2-0.8,0.2
			C38.9,51.1,38.2,50.4,38.2,49.5L38.2,49.5z"/>
	</g>
	<g>
		<path class="st2" d="M240.5,57.7c-0.2-0.5-0.3-0.9-0.6-1.3c1.3-0.9,1.7-2.5,1.3-4c-0.2-0.5-0.4-0.9-0.7-1.4
			c1.3-0.9,1.9-2.6,1.4-4.1c-0.2-1-0.9-1.8-1.9-2.3c-0.5-0.2-0.9-0.4-1.4-0.4c0.2-1.6-0.5-3.1-1.9-3.9c-0.9-0.5-2-0.6-2.9-0.3
			l-5.8,1.6l-0.2,0.1v-7.4c0.1-2.3-1.3-4.1-3.5-4.6c-2.2-0.5-4.4,0.6-5,2.8l-3.4,15L203.4,51l0.7,2.5l14.1-3.9l3.7-16.6
			c0.2-0.8,1.3-1.2,2-1c0.7,0.2,1.5,0.5,1.4,2v10.8l0,0c-0.1,0.5,0,0.9,0.1,1.3l0,0c0.2,0.9,0.8,1.6,1.6,2.1
			c-0.9,1.7-0.4,3.9,1.3,4.9c-0.9,1.8-0.2,4,1.5,5l0.6,0.2l0.5,0.2c-0.2,0.9,0,2,0.5,2.7l-6.9,2l-3.1-1.3l-9.3,2.6l0.7,2.5l8.5-2.3
			l3.1,1.3l11-3.1l0.2-0.1l2.2-0.6C239.8,61.7,241,59.6,240.5,57.7z M227.9,45.5c-0.2-0.6,0.2-1.3,0.9-1.5l5.8-1.6
			c0.3-0.1,0.7-0.1,0.9,0.1c0.2,0.2,0.5,0.4,0.5,0.7c0.2,0.6-0.2,1.3-0.9,1.5l0,0l-5.8,1.6c-0.3,0.1-0.7,0.1-0.9-0.1
			C228.2,46,227.9,45.8,227.9,45.5L227.9,45.5L227.9,45.5z M229.1,50.4L229.1,50.4c-0.2-0.7,0.3-1.3,0.9-1.5l7.7-2.1
			c0.3-0.1,0.5-0.1,0.9,0l0.2,0.1c0.3,0.2,0.5,0.4,0.5,0.7c0.2,0.7-0.2,1.3-0.9,1.6l0,0l-7.8,2.1c-0.3,0.1-0.7,0.1-1-0.1
			C229.3,50.9,229.2,50.6,229.1,50.4L229.1,50.4z M231,56c-0.3-0.2-0.5-0.4-0.5-0.7c-0.2-0.6,0.2-1.3,0.9-1.5l0,0l5.8-1.6
			c0.3-0.1,0.7-0.1,0.9,0.1c0.3,0.2,0.5,0.4,0.5,0.7c0.2,0.6-0.2,1.3-0.9,1.5l0,0l-1.9,0.5h-0.2l-0.6,0.2l-3.2,0.9
			C231.6,56.2,231.3,56.1,231,56L231,56z M237.1,59.9l-2,0.5l0,0l-0.3,0.1c-0.3,0.1-0.5,0-0.8-0.1c-0.2-0.2-0.5-0.4-0.5-0.7l0,0
			c-0.2-0.6,0.2-1.3,0.9-1.5l1.5-0.4l0.7-0.2c0.2-0.1,0.5,0,0.6,0l0.2,0.1c0.2,0.2,0.5,0.3,0.5,0.6
			C238.1,58.9,237.7,59.6,237.1,59.9C237.1,59.8,237.1,59.8,237.1,59.9L237.1,59.9z"/>
	</g>
	<g>
		<g>
			<path class="st2" d="M130.6,67.5c-10.3,0-18.8-8.5-18.8-18.8S120.3,30,130.6,30s18.8,8.5,18.8,18.8
				C149.4,59.2,140.9,67.5,130.6,67.5 M130.6,33.2c-8.6,0-15.7,7-15.7,15.7s7,15.7,15.7,15.7s15.7-7,15.7-15.7
				C146.2,40.1,139.2,33.2,130.6,33.2"/>
			<path class="st2" d="M131.3,36.1c0,0.4-0.3,0.7-0.7,0.7s-0.7-0.3-0.7-0.7c0-0.4,0.3-0.7,0.7-0.7S131.3,35.7,131.3,36.1
				 M127.9,36.3c-0.1-0.4-0.5-0.6-0.9-0.5c-0.4,0.1-0.6,0.5-0.5,0.9c0.1,0.4,0.5,0.6,0.9,0.5C127.8,37.1,128.1,36.7,127.9,36.3
				 M124.8,37.4c-0.2-0.3-0.6-0.5-0.9-0.2c-0.3,0.2-0.5,0.6-0.2,0.9c0.2,0.3,0.6,0.5,0.9,0.2C124.9,38.2,125,37.7,124.8,37.4
				 M122.1,39.3c-0.3-0.3-0.7-0.3-1,0c-0.3,0.3-0.3,0.7,0,1c0.3,0.3,0.7,0.3,1,0C122.4,40,122.4,39.5,122.1,39.3 M119.9,41.8
				c-0.3-0.2-0.8-0.1-0.9,0.2c-0.2,0.3-0.1,0.8,0.2,0.9s0.8,0.1,0.9-0.2C120.3,42.4,120.3,42,119.9,41.8 M118.5,44.8
				c-0.4-0.1-0.8,0.2-0.9,0.5c-0.1,0.4,0.2,0.8,0.5,0.9c0.4,0.1,0.8-0.2,0.9-0.5C119.1,45.3,118.8,44.9,118.5,44.8 M117.8,48
				c-0.4,0-0.7,0.3-0.7,0.7c0,0.4,0.3,0.7,0.7,0.7c0.4,0,0.7-0.3,0.7-0.7C118.5,48.4,118.2,48,117.8,48 M118.1,51.4
				c-0.4,0.1-0.6,0.5-0.5,0.9c0.1,0.4,0.5,0.6,0.9,0.5c0.4-0.1,0.6-0.5,0.5-0.9C118.8,51.5,118.5,51.3,118.1,51.4 M119.2,54.5
				c-0.3,0.2-0.5,0.6-0.2,0.9c0.2,0.3,0.6,0.5,0.9,0.2c0.3-0.2,0.5-0.6,0.2-0.9C119.9,54.5,119.5,54.3,119.2,54.5 M121,57.3
				c-0.3,0.3-0.3,0.7,0,1c0.3,0.3,0.7,0.3,1,0c0.3-0.3,0.3-0.7,0-1C121.8,57,121.3,57,121,57.3 M123.6,59.5
				c-0.2,0.3-0.1,0.8,0.2,0.9c0.3,0.2,0.8,0.1,0.9-0.2c0.2-0.3,0.1-0.8-0.2-0.9C124.2,59,123.8,59.1,123.6,59.5 M126.6,60.9
				c-0.1,0.4,0.2,0.8,0.5,0.9c0.4,0.1,0.8-0.2,0.9-0.5c0.1-0.4-0.2-0.8-0.5-0.9C127.1,60.3,126.7,60.5,126.6,60.9 M129.9,61.5
				c0,0.4,0.3,0.7,0.7,0.7c0.4,0,0.7-0.3,0.7-0.7s-0.3-0.7-0.7-0.7C130.2,60.8,129.9,61.1,129.9,61.5 M133.2,61.3
				c0.1,0.4,0.5,0.6,0.9,0.5c0.4-0.1,0.6-0.5,0.5-0.9c-0.1-0.4-0.5-0.6-0.9-0.5C133.3,60.5,133.1,60.9,133.2,61.3 M136.3,60.2
				c0.2,0.3,0.6,0.5,0.9,0.2c0.3-0.2,0.5-0.6,0.2-0.9s-0.6-0.5-0.9-0.2C136.2,59.4,136.1,59.9,136.3,60.2 M139.1,58.3
				c0.3,0.3,0.7,0.3,1,0c0.3-0.3,0.3-0.7,0-1c-0.3-0.3-0.7-0.3-1,0C138.8,57.6,138.8,58,139.1,58.3 M141.2,55.8
				c0.3,0.2,0.8,0.1,0.9-0.2c0.2-0.3,0.1-0.8-0.2-0.9c-0.3-0.2-0.8-0.1-0.9,0.2S140.9,55.6,141.2,55.8 M142.7,52.7
				c0.4,0.1,0.8-0.2,0.9-0.5c0.1-0.4-0.2-0.8-0.5-0.9c-0.4-0.1-0.8,0.2-0.9,0.5C142.1,52.3,142.3,52.7,142.7,52.7 M143.3,49.5
				c0.4,0,0.7-0.3,0.7-0.7c0-0.4-0.3-0.7-0.7-0.7s-0.7,0.3-0.7,0.7C142.6,49.1,142.9,49.5,143.3,49.5 M143,46.2
				c0.4-0.1,0.6-0.5,0.5-0.9c-0.1-0.4-0.5-0.6-0.9-0.5c-0.4,0.1-0.6,0.5-0.5,0.9C142.3,46,142.7,46.2,143,46.2 M141.9,43
				c0.3-0.2,0.5-0.6,0.2-0.9c-0.2-0.3-0.6-0.5-0.9-0.2c-0.3,0.2-0.5,0.6-0.2,0.9C141.1,43.1,141.6,43.2,141.9,43 M140.1,40.3
				c0.3-0.3,0.3-0.7,0-1s-0.7-0.3-1,0c-0.3,0.3-0.3,0.7,0,1 M137.5,38.1c0.2-0.3,0.1-0.8-0.2-0.9c-0.3-0.2-0.8-0.1-0.9,0.2
				c-0.2,0.3-0.1,0.8,0.2,0.9C136.9,38.6,137.4,38.4,137.5,38.1 M134.6,36.7c0.1-0.4-0.2-0.8-0.5-0.9c-0.4-0.1-0.8,0.2-0.9,0.5
				c-0.1,0.4,0.2,0.8,0.5,0.9C134,37.2,134.4,37,134.6,36.7"/>
			<path class="st2" d="M129.4,52h4.9l-0.3,2h-7.4v-1.8c1.3-0.4,1.3-0.9,1.3-2V49h-1.1v-1.3h1.1v-1.4c0-2,1.2-3.4,3.4-3.4
				c1.5,0,2.5,0.5,3.3,1.6l-1.6,1.2c-0.5-0.6-0.9-0.9-1.5-0.9c-0.8,0-1.2,0.5-1.2,1.5v1.4h3v1.3h-3v1.1
				C130.4,50.9,130.3,51.6,129.4,52"/>
		</g>
	</g>
	<rect x="17.9" y="76.5" class="st1" width="44.4" height="31.3"/>
	<g class="st3">
		<path class="st2" d="M32,78.3l-1,1.1c-0.7-0.6-1.4-0.8-2.2-0.8c-0.8,0-1.4,0.4-1.4,1.1c0,0.7,0.4,1,2,1.5c1.8,0.6,2.9,1.3,2.9,3.1
			c0,1.8-1.4,3-3.8,3c-1.6,0-2.8-0.6-3.6-1.4l1.1-1.2c0.7,0.6,1.5,1,2.5,1s1.7-0.5,1.7-1.3c0-0.8-0.4-1.1-1.9-1.6
			c-2.1-0.7-3-1.5-3-3c0-1.7,1.4-2.7,3.4-2.7C30.2,77.1,31.2,77.6,32,78.3z"/>
		<path class="st2" d="M40,86l-0.4,1.3c-0.8-0.1-1.4-0.4-1.7-1.1c-0.5,0.8-1.4,1.1-2.2,1.1c-1.5,0-2.4-1-2.4-2.3
			c0-1.6,1.2-2.5,3.4-2.5h0.9v-0.4c0-0.9-0.4-1.2-1.3-1.2c-0.5,0-1.2,0.1-2,0.4L33.7,80c0.9-0.4,1.9-0.5,2.8-0.5c2.1,0,3,0.9,3,2.6
			v3C39.4,85.6,39.6,85.8,40,86z M37.5,85.1v-1.4h-0.7c-1.1,0-1.6,0.4-1.6,1.2c0,0.7,0.3,1,1,1C36.7,85.9,37.1,85.6,37.5,85.1z"/>
		<path class="st2" d="M45,87.1h-2.4l-2.4-7.5h2.2l1.5,5.9l1.5-5.9h2.1L45,87.1z"/>
		<path class="st2" d="M54.4,84h-4.7c0.1,1.4,0.8,1.9,1.8,1.9c0.6,0,1.2-0.2,1.8-0.6l0.8,1.1c-0.7,0.6-1.7,1-2.8,1
			c-2.4,0-3.6-1.6-3.6-3.9c0-2.3,1.2-4,3.4-4c2.1,0,3.4,1.4,3.4,3.8C54.4,83.4,54.4,83.8,54.4,84z M52.4,82.6c0-1.1-0.4-1.9-1.3-1.9
			c-0.8,0-1.3,0.5-1.4,1.9L52.4,82.6L52.4,82.6z"/>
	</g>
	<g class="st3">
		<path class="st2" d="M31,102.1c-0.5,0.4-1.3,0.6-1.9,0.6c-1.5,0-2.3-0.9-2.3-2.6v-3.7h-1.1V95h1.1v-1.6l2-0.2V95h1.7l-0.2,1.4
			h-1.5v3.7c0,0.7,0.2,1,0.7,1c0.3,0,0.5-0.1,0.8-0.3L31,102.1z"/>
		<path class="st2" d="M34.1,92.3c0,0.7-0.5,1.2-1.2,1.2s-1.2-0.5-1.2-1.2s0.5-1.2,1.2-1.2S34.1,91.6,34.1,92.3z M33.9,102.4h-2V95
			h2V102.4z"/>
		<path class="st2" d="M45.9,97v5.4h-2v-5.1c0-0.9-0.3-1.1-0.7-1.1c-0.5,0-0.9,0.4-1.3,1v5.2h-2v-5.1c0-0.9-0.3-1.1-0.7-1.1
			c-0.5,0-0.9,0.4-1.3,1v5.2h-2V95h1.7l0.2,0.9c0.5-0.7,1.2-1.2,2.2-1.2c0.8,0,1.5,0.4,1.8,1.2c0.6-0.8,1.3-1.2,2.2-1.2
			C45.1,94.7,45.9,95.6,45.9,97z"/>
		<path class="st2" d="M54.1,99.3h-4.7c0.1,1.4,0.8,1.9,1.8,1.9c0.6,0,1.2-0.2,1.8-0.6l0.8,1.1c-0.7,0.6-1.7,1-2.8,1
			c-2.4,0-3.6-1.6-3.6-3.9c0-2.3,1.2-4,3.4-4c2.1,0,3.4,1.4,3.4,3.8C54.1,98.8,54.1,99.1,54.1,99.3z M52.1,98c0-1.1-0.4-1.9-1.3-1.9
			c-0.8,0-1.3,0.5-1.4,1.9L52.1,98L52.1,98z"/>
	</g>
	<rect x="107.9" y="76.5" class="st1" width="44.4" height="31.3"/>
	<g class="st3">
		<path class="st2" d="M122,78.3l-1,1.1c-0.7-0.6-1.4-0.8-2.2-0.8c-0.8,0-1.4,0.4-1.4,1.1c0,0.7,0.4,1,2,1.5
			c1.8,0.6,2.9,1.3,2.9,3.1c0,1.8-1.4,3-3.8,3c-1.6,0-2.8-0.6-3.6-1.4l1.1-1.2c0.7,0.6,1.5,1,2.5,1c1,0,1.7-0.5,1.7-1.3
			c0-0.8-0.4-1.1-1.9-1.6c-2.1-0.7-3-1.5-3-3c0-1.7,1.4-2.7,3.4-2.7C120.2,77.1,121.2,77.6,122,78.3z"/>
		<path class="st2" d="M130,86l-0.4,1.3c-0.8-0.1-1.4-0.4-1.7-1.1c-0.5,0.8-1.4,1.1-2.2,1.1c-1.5,0-2.4-1-2.4-2.3
			c0-1.6,1.2-2.5,3.4-2.5h0.9v-0.4c0-0.9-0.4-1.2-1.3-1.2c-0.5,0-1.2,0.1-2,0.4l-0.5-1.3c0.9-0.4,1.9-0.5,2.8-0.5c2.1,0,3,0.9,3,2.6
			v3C129.4,85.6,129.6,85.8,130,86z M127.5,85.1v-1.4h-0.7c-1.1,0-1.6,0.4-1.6,1.2c0,0.7,0.3,1,1,1
			C126.7,85.9,127.1,85.6,127.5,85.1z"/>
		<path class="st2" d="M135,87.1h-2.4l-2.4-7.5h2.2l1.5,5.9l1.5-5.9h2.1L135,87.1z"/>
		<path class="st2" d="M144.4,84h-4.7c0.1,1.4,0.8,1.9,1.8,1.9c0.6,0,1.2-0.2,1.8-0.6l0.8,1.1c-0.7,0.6-1.7,1-2.8,1
			c-2.4,0-3.6-1.6-3.6-3.9c0-2.3,1.2-4,3.4-4c2.1,0,3.4,1.4,3.4,3.8C144.4,83.4,144.4,83.8,144.4,84z M142.4,82.6
			c0-1.1-0.4-1.9-1.3-1.9c-0.8,0-1.3,0.5-1.4,1.9L142.4,82.6L142.4,82.6z"/>
	</g>
	<g class="st3">
		<path class="st2" d="M119.5,97v5.4h-2v-5.1c0-0.9-0.3-1.1-0.7-1.1c-0.5,0-0.9,0.4-1.3,1v5.2h-2v-5.1c0-0.9-0.3-1.1-0.7-1.1
			c-0.5,0-0.9,0.4-1.3,1v5.2h-2V95h1.7l0.2,0.9c0.5-0.7,1.2-1.2,2.2-1.2c0.8,0,1.5,0.4,1.8,1.2c0.6-0.8,1.3-1.2,2.2-1.2
			C118.7,94.7,119.5,95.6,119.5,97z"/>
		<path class="st2" d="M128.1,98.7c0,2.4-1.3,4-3.6,4c-2.2,0-3.6-1.5-3.6-4c0-2.4,1.3-4,3.6-4C126.7,94.7,128.1,96.2,128.1,98.7z
			 M123,98.7c0,1.7,0.5,2.5,1.5,2.5s1.5-0.8,1.5-2.5c0-1.7-0.5-2.5-1.5-2.5C123.5,96.2,123,97,123,98.7z"/>
		<path class="st2" d="M135.8,97v5.4h-2v-5.1c0-0.9-0.3-1.1-0.8-1.1c-0.6,0-1,0.4-1.4,1v5.2h-2V95h1.7l0.2,0.9
			c0.6-0.7,1.3-1.2,2.3-1.2C135.1,94.7,135.8,95.6,135.8,97z"/>
		<path class="st2" d="M144,99.3h-4.7c0.1,1.4,0.8,1.9,1.8,1.9c0.6,0,1.2-0.2,1.8-0.6l0.8,1.1c-0.7,0.6-1.7,1-2.8,1
			c-2.4,0-3.6-1.6-3.6-3.9c0-2.3,1.2-4,3.4-4c2.1,0,3.4,1.4,3.4,3.8C144.1,98.8,144,99.1,144,99.3z M142.1,98c0-1.1-0.4-1.9-1.3-1.9
			c-0.8,0-1.3,0.5-1.4,1.9L142.1,98L142.1,98z"/>
		<path class="st2" d="M149.2,102.4c-0.6,1.8-1.7,2.9-4,3.1l-0.2-1.4c1.5-0.2,2-0.6,2.4-1.7h-0.7l-2.3-7.5h2.1l1.5,6.2l1.6-6.2h2.1
			L149.2,102.4z"/>
	</g>
	<rect x="198.7" y="76.5" class="st1" width="44.4" height="31.3"/>
	<g class="st3">
		<path class="st2" d="M212.8,78.3l-1,1.1c-0.7-0.6-1.4-0.8-2.2-0.8c-0.8,0-1.4,0.4-1.4,1.1c0,0.7,0.4,1,2,1.5
			c1.8,0.6,2.9,1.3,2.9,3.1c0,1.8-1.4,3-3.8,3c-1.6,0-2.8-0.6-3.6-1.4l1.1-1.2c0.7,0.6,1.5,1,2.5,1s1.7-0.5,1.7-1.3
			c0-0.8-0.4-1.1-1.9-1.6c-2.1-0.7-3-1.5-3-3c0-1.7,1.4-2.7,3.4-2.7C211,77.1,212,77.6,212.8,78.3z"/>
		<path class="st2" d="M220.7,86l-0.4,1.3c-0.8-0.1-1.4-0.4-1.7-1.1c-0.5,0.8-1.4,1.1-2.2,1.1c-1.5,0-2.4-1-2.4-2.3
			c0-1.6,1.2-2.5,3.4-2.5h0.9v-0.4c0-0.9-0.4-1.2-1.3-1.2c-0.5,0-1.2,0.1-2,0.4l-0.5-1.3c0.9-0.4,1.9-0.5,2.8-0.5c2.1,0,3,0.9,3,2.6
			v3C220.2,85.6,220.4,85.8,220.7,86z M218.2,85.1v-1.4h-0.7c-1.1,0-1.6,0.4-1.6,1.2c0,0.7,0.3,1,1,1
			C217.5,85.9,217.9,85.6,218.2,85.1z"/>
		<path class="st2" d="M225.8,87.1h-2.4l-2.4-7.5h2.2l1.5,5.9l1.5-5.9h2.1L225.8,87.1z"/>
		<path class="st2" d="M235.2,84h-4.7c0.1,1.4,0.8,1.9,1.8,1.9c0.6,0,1.2-0.2,1.8-0.6l0.8,1.1c-0.7,0.6-1.7,1-2.8,1
			c-2.4,0-3.6-1.6-3.6-3.9c0-2.3,1.2-4,3.4-4c2.1,0,3.4,1.4,3.4,3.8C235.2,83.4,235.2,83.8,235.2,84z M233.2,82.6
			c0-1.1-0.4-1.9-1.3-1.9c-0.8,0-1.3,0.5-1.4,1.9L233.2,82.6L233.2,82.6z"/>
	</g>
	<g class="st3">
		<path class="st2" d="M207.5,97v5.4h-2v-5.1c0-0.9-0.3-1.1-0.8-1.1c-0.6,0-1,0.4-1.4,1v5.2h-2V92l2-0.2v4c0.6-0.7,1.3-1.1,2.2-1.1
			C206.7,94.7,207.5,95.6,207.5,97z"/>
		<path class="st2" d="M215.6,101.3l-0.4,1.3c-0.8-0.1-1.4-0.4-1.7-1.1c-0.5,0.8-1.4,1.1-2.2,1.1c-1.5,0-2.4-1-2.4-2.3
			c0-1.6,1.2-2.5,3.4-2.5h0.9v-0.4c0-0.9-0.4-1.2-1.3-1.2c-0.5,0-1.2,0.1-2,0.4l-0.5-1.3c0.9-0.4,1.9-0.5,2.8-0.5c2.1,0,3,0.9,3,2.6
			v3C215.1,101,215.3,101.2,215.6,101.3z M213.1,100.4V99h-0.7c-1.1,0-1.6,0.4-1.6,1.2c0,0.7,0.3,1,1,1
			C212.4,101.2,212.8,100.9,213.1,100.4z"/>
		<path class="st2" d="M222.3,95.6l-0.8,1.1c-0.6-0.4-1.2-0.6-1.9-0.6c-0.7,0-1,0.3-1,0.7c0,0.4,0.3,0.6,1.6,1
			c1.5,0.4,2.3,1,2.3,2.4c0,1.5-1.5,2.4-3.2,2.4c-1.3,0-2.3-0.4-3-1.1l1-1.1c0.6,0.4,1.3,0.7,2,0.7s1.2-0.3,1.2-0.8
			c0-0.6-0.3-0.7-1.6-1.1c-1.5-0.4-2.2-1.2-2.2-2.3c0-1.3,1.2-2.2,3-2.2C220.6,94.7,221.6,95.1,222.3,95.6z"/>
		<path class="st2" d="M229,95.6l-0.8,1.1c-0.6-0.4-1.2-0.6-1.9-0.6c-0.7,0-1,0.3-1,0.7c0,0.4,0.3,0.6,1.6,1c1.5,0.4,2.3,1,2.3,2.4
			c0,1.5-1.5,2.4-3.2,2.4c-1.3,0-2.3-0.4-3-1.1l1-1.1c0.6,0.4,1.3,0.7,2,0.7s1.2-0.3,1.2-0.8c0-0.6-0.3-0.7-1.6-1.1
			c-1.5-0.4-2.2-1.2-2.2-2.3c0-1.3,1.2-2.2,3-2.2C227.4,94.7,228.3,95.1,229,95.6z"/>
		<path class="st2" d="M230.5,100.6V92l2-0.2v8.8c0,0.3,0.1,0.5,0.4,0.5c0.2,0,0.3,0,0.4-0.1l0.4,1.4c-0.3,0.1-0.8,0.3-1.3,0.3
			C231.2,102.7,230.5,101.9,230.5,100.6z"/>
		<path class="st2" d="M240.9,99.3h-4.7c0.1,1.4,0.8,1.9,1.8,1.9c0.6,0,1.2-0.2,1.8-0.6l0.8,1.1c-0.7,0.6-1.7,1-2.8,1
			c-2.4,0-3.6-1.6-3.6-3.9c0-2.3,1.2-4,3.4-4c2.1,0,3.4,1.4,3.4,3.8C240.9,98.8,240.9,99.1,240.9,99.3z M238.9,98
			c0-1.1-0.4-1.9-1.3-1.9c-0.8,0-1.3,0.5-1.4,1.9L238.9,98L238.9,98z"/>
	</g>
	<line class="st4" x1="81.8" y1="24.8" x2="81.8" y2="104.6"/>
	<line class="st4" x1="173.8" y1="24.8" x2="173.8" y2="104.6"/>
</g>
<g>
	<g>
		<g>
			<path class="st5" d="M162.6,307.9c0,0.6-0.4,1-1,1h-147c-0.5,0-1-0.4-1-1v-34c0-0.6,0.5-1,1-1h147c0.6,0,1,0.4,1,1V307.9z"/>
		</g>
		<g>
			<circle class="st2" cx="147" cy="291.9" r="8.4"/>
			<polygon class="st0" points="152.5,292 147.1,287.1 143.4,287.1 147.7,292 143.4,296.8 147.5,296.8 			"/>
		</g>
	</g>
	<g>
		<path class="st2" d="M32,295.7h-3.1l-1.3-7.8l-1.3,7.8h-3.1l-1.7-10.2h2.4l1,8.4l1.4-8.4h2.5l1.3,8.4l1.2-8.4h2.3L32,295.7z"/>
		<path class="st2" d="M41.1,294.4l-0.5,1.5c-0.9-0.1-1.5-0.4-1.9-1.1c-0.6,0.9-1.4,1.2-2.4,1.2c-1.6,0-2.5-1-2.5-2.4
			c0-1.7,1.3-2.6,3.7-2.6h0.8v-0.3c0-0.9-0.4-1.2-1.3-1.2c-0.5,0-1.3,0.1-2,0.4l-0.5-1.5c1-0.4,2.1-0.6,2.9-0.6c2.3,0,3.2,1,3.2,2.8
			v3C40.6,294.1,40.7,294.3,41.1,294.4z M38.3,293.6v-1.4h-0.6c-1.1,0-1.6,0.4-1.6,1.1c0,0.6,0.3,1,0.9,1
			C37.6,294.3,38,294,38.3,293.6z"/>
		<path class="st2" d="M47.3,295.4c-0.6,0.4-1.4,0.6-2.1,0.6c-1.7,0-2.6-1-2.6-2.8v-3.6h-1.1v-1.6h1.1v-1.7L45,286v2h1.8l-0.3,1.6
			H45v3.6c0,0.8,0.3,1,0.7,1c0.3,0,0.5-0.1,0.8-0.3L47.3,295.4z"/>
		<path class="st2" d="M54,288.6l-1,1.4c-0.5-0.4-1-0.6-1.5-0.6c-1,0-1.6,0.7-1.6,2.4c0,1.7,0.6,2.3,1.5,2.3c0.6,0,0.9-0.2,1.5-0.5
			l1,1.4c-0.7,0.6-1.6,0.9-2.6,0.9c-2.4,0-3.9-1.6-3.9-4.1c0-2.5,1.5-4.2,3.8-4.2C52.4,287.7,53.3,288,54,288.6z"/>
		<path class="st2" d="M61.8,290v5.7h-2.3v-5.3c0-0.8-0.3-1-0.7-1c-0.5,0-0.9,0.4-1.4,1v5.4H55v-10.9l2.3-0.2v4.2
			c0.6-0.7,1.3-1.1,2.3-1.1C61,287.7,61.8,288.5,61.8,290z"/>
		<path class="st2" d="M74.2,291.8c0,2.5-1.4,4.2-3.8,4.2c-2.4,0-3.8-1.5-3.8-4.2c0-2.5,1.4-4.2,3.8-4.2
			C72.8,287.7,74.2,289.2,74.2,291.8z M69,291.8c0,1.7,0.5,2.5,1.4,2.5s1.4-0.8,1.4-2.4c0-1.7-0.5-2.5-1.4-2.5S69,290.1,69,291.8z"
			/>
		<path class="st2" d="M82.2,295.7h-2l-0.1-1c-0.6,0.8-1.3,1.2-2.4,1.2c-1.5,0-2.2-0.9-2.2-2.5v-5.6h2.3v5.3c0,0.8,0.3,1,0.8,1
			c0.5,0,0.9-0.3,1.3-0.9v-5.4h2.3V295.7z"/>
		<path class="st2" d="M89.1,287.8l-0.4,2.3c-0.3-0.1-0.4-0.1-0.7-0.1c-1,0-1.4,0.7-1.6,1.9v3.9H84v-7.8h2l0.2,1.5
			c0.4-1.1,1.1-1.7,2-1.7C88.6,287.7,88.8,287.7,89.1,287.8z"/>
		<path class="st2" d="M97.7,295.7H95l-2.5-7.8H95l1.4,6.1l1.4-6.1h2.4L97.7,295.7z"/>
		<path class="st2" d="M103.5,285.1c0,0.8-0.6,1.3-1.4,1.3c-0.8,0-1.4-0.6-1.4-1.3c0-0.8,0.6-1.3,1.4-1.3
			C103,283.8,103.5,284.4,103.5,285.1z M103.3,295.7H101v-7.8h2.3V295.7z"/>
		<path class="st2" d="M112.2,284.8v10.9h-2.1l-0.1-0.9c-0.5,0.6-1.2,1.2-2.2,1.2c-2,0-3-1.6-3-4.2c0-2.4,1.3-4.1,3.2-4.1
			c0.8,0,1.4,0.3,1.9,0.7v-3.8L112.2,284.8z M109.8,293.4V290c-0.4-0.4-0.7-0.7-1.2-0.7c-0.8,0-1.4,0.7-1.4,2.5
			c0,1.9,0.5,2.5,1.3,2.5C109,294.3,109.5,294,109.8,293.4z"/>
		<path class="st2" d="M120.8,292.5h-4.8c0.2,1.4,0.8,1.8,1.8,1.8c0.6,0,1.2-0.2,1.9-0.7l1,1.3c-0.8,0.6-1.8,1.1-3,1.1
			c-2.6,0-3.9-1.7-3.9-4.1c0-2.3,1.3-4.2,3.7-4.2c2.2,0,3.6,1.5,3.6,4C120.8,291.9,120.8,292.3,120.8,292.5z M118.5,291
			c0-1.1-0.3-1.8-1.3-1.8c-0.8,0-1.2,0.5-1.3,1.9h2.6V291z"/>
		<path class="st2" d="M129.3,291.8c0,2.5-1.4,4.2-3.8,4.2c-2.4,0-3.8-1.5-3.8-4.2c0-2.5,1.4-4.2,3.8-4.2
			C127.9,287.7,129.3,289.2,129.3,291.8z M124.1,291.8c0,1.7,0.5,2.5,1.4,2.5s1.4-0.8,1.4-2.4c0-1.7-0.5-2.5-1.4-2.5
			S124.1,290.1,124.1,291.8z"/>
	</g>
</g>
<g>
	<path class="st2" d="M23.8,149.2h7l-0.4,3.4H19.6v-18h4.3V149.2z"/>
	<path class="st2" d="M44.8,146.9h-8.6c0.3,2.5,1.5,3.2,3.1,3.2c1.1,0,2.1-0.4,3.3-1.2l1.7,2.3c-1.4,1.1-3.1,1.9-5.4,1.9
		c-4.6,0-7-3-7-7.3c0-4.1,2.3-7.4,6.5-7.4c4,0,6.4,2.6,6.4,7.1C44.9,145.8,44.9,146.5,44.8,146.9z M40.9,144.2
		c0-1.9-0.6-3.2-2.2-3.2c-1.4,0-2.2,0.9-2.4,3.4h4.6V144.2z"/>
	<path class="st2" d="M59.1,150.3l-0.9,2.7c-1.6-0.1-2.7-0.6-3.3-2c-1,1.5-2.5,2.1-4.2,2.1c-2.8,0-4.5-1.8-4.5-4.3
		c0-3,2.3-4.7,6.5-4.7h1.4v-0.6c0-1.6-0.7-2.1-2.3-2.1c-0.9,0-2.2,0.3-3.6,0.7l-0.9-2.7c1.7-0.7,3.6-1,5.2-1c4,0,5.7,1.7,5.7,4.9
		v5.4C58.2,149.6,58.5,150,59.1,150.3z M54.2,148.8v-2.4h-1c-1.9,0-2.8,0.7-2.8,2c0,1.1,0.6,1.7,1.6,1.7
		C52.9,150.1,53.7,149.6,54.2,148.8z"/>
	<path class="st2" d="M70.4,138.6l-0.7,4c-0.4-0.1-0.8-0.2-1.2-0.2c-1.7,0-2.4,1.3-2.9,3.4v6.8h-4.1v-13.8h3.6l0.3,2.7
		c0.6-1.9,2-3.1,3.6-3.1C69.5,138.4,69.9,138.4,70.4,138.6z"/>
	<path class="st2" d="M83.8,142.5v10.1h-4.1v-9.4c0-1.5-0.5-1.8-1.3-1.8c-0.9,0-1.7,0.7-2.4,1.8v9.4h-4.1v-13.8h3.6l0.3,1.6
		c1.2-1.4,2.5-2.1,4.2-2.1C82.4,138.3,83.8,139.9,83.8,142.5z"/>
	<path class="st2" d="M105,142.5v10.1h-4.1v-9.4c0-1.5-0.5-1.8-1.3-1.8c-0.9,0-1.7,0.7-2.4,1.8v9.5h-4.1v-19.3l4.1-0.4v7.4
		c1.1-1.3,2.4-1.9,4-1.9C103.6,138.3,105,139.9,105,142.5z"/>
	<path class="st2" d="M120.9,145.7c0,4.4-2.6,7.3-6.8,7.3c-4.2,0-6.8-2.7-6.8-7.4c0-4.4,2.6-7.3,6.8-7.3
		C118.3,138.3,120.9,141,120.9,145.7z M111.6,145.7c0,3.1,0.8,4.3,2.5,4.3s2.5-1.3,2.5-4.3c0-3.1-0.8-4.3-2.5-4.3
		S111.6,142.7,111.6,145.7z"/>
	<path class="st2" d="M138,152.6H133l-1.8-10.2l-1.8,10.2h-4.9l-2.9-13.8h4.2l1.4,10.8l2.2-10.8h4l1.9,10.8l1.7-10.8h3.9L138,152.6z
		"/>
	<path class="st2" d="M156.4,152.6c-1.1,3.5-3.4,5.5-7.8,5.8l-0.4-2.9c2.7-0.3,3.7-1.1,4.5-2.9h-1.4l-4.2-13.8h4.4l2.5,11.2
		l2.7-11.2h4.2L156.4,152.6z"/>
	<path class="st2" d="M174.6,145.7c0,4.4-2.6,7.3-6.8,7.3c-4.2,0-6.8-2.7-6.8-7.4c0-4.4,2.6-7.3,6.8-7.3
		C172,138.3,174.6,141,174.6,145.7z M165.3,145.7c0,3.1,0.8,4.3,2.5,4.3s2.5-1.3,2.5-4.3c0-3.1-0.8-4.3-2.5-4.3
		S165.3,142.7,165.3,145.7z"/>
	<path class="st2" d="M188.7,152.6h-3.6l-0.2-1.7c-1,1.5-2.4,2.2-4.2,2.2c-2.6,0-3.9-1.7-3.9-4.3v-9.9h4.1v9.4
		c0,1.4,0.5,1.8,1.3,1.8s1.6-0.6,2.2-1.6v-9.6h4.1V152.6z"/>
	<path class="st2" d="M208.8,140l-1.8,2.4c-0.9-0.7-1.7-1-2.6-1c-1.8,0-2.8,1.2-2.8,4.3c0,3.1,1.1,4,2.7,4c1,0,1.7-0.3,2.7-0.9
		l1.8,2.6c-1.3,1-2.8,1.6-4.7,1.6c-4.2,0-6.8-2.9-6.8-7.2c0-4.4,2.6-7.5,6.8-7.5C206,138.3,207.5,138.9,208.8,140z"/>
	<path class="st2" d="M222.5,150.3l-0.9,2.7c-1.6-0.1-2.7-0.6-3.3-2c-1,1.5-2.5,2.1-4.2,2.1c-2.8,0-4.5-1.8-4.5-4.3
		c0-3,2.3-4.7,6.5-4.7h1.4v-0.6c0-1.6-0.7-2.1-2.3-2.1c-0.9,0-2.2,0.3-3.6,0.7l-0.9-2.7c1.7-0.7,3.6-1,5.2-1c4,0,5.7,1.7,5.7,4.9
		v5.4C221.5,149.6,221.8,150,222.5,150.3z M217.5,148.8v-2.4h-1c-1.9,0-2.8,0.7-2.8,2c0,1.1,0.6,1.7,1.6,1.7
		C216.3,150.1,217,149.6,217.5,148.8z"/>
	<path class="st2" d="M236.7,142.5v10.1h-4.1v-9.4c0-1.5-0.5-1.8-1.3-1.8c-0.9,0-1.7,0.7-2.4,1.8v9.4h-4.1v-13.8h3.6l0.3,1.6
		c1.2-1.4,2.5-2.1,4.2-2.1C235.3,138.3,236.7,139.9,236.7,142.5z"/>
	<path class="st2" d="M29.4,171.2l-1.5,2.3c-1.1-0.7-2.2-1.1-3.4-1.1c-1.1,0-1.7,0.4-1.7,1c0,0.7,0.4,1,2.8,1.8
		c2.7,0.8,4.3,1.9,4.3,4.4c0,2.9-2.7,4.6-6.1,4.6c-2.4,0-4.4-0.8-5.8-2.1l2-2.2c1,0.8,2.3,1.4,3.7,1.4c1.2,0,2-0.5,2-1.3
		c0-0.9-0.4-1.2-2.9-1.9c-2.7-0.8-4.1-2.2-4.1-4.3c0-2.4,2.2-4.2,5.6-4.2C26.4,169.6,28.2,170.2,29.4,171.2z"/>
	<path class="st2" d="M44,181.5l-0.9,2.7c-1.6-0.1-2.7-0.6-3.3-2c-1,1.5-2.5,2.1-4.2,2.1c-2.8,0-4.5-1.8-4.5-4.3
		c0-3,2.3-4.7,6.5-4.7H39v-0.6c0-1.6-0.7-2.1-2.3-2.1c-0.9,0-2.2,0.3-3.6,0.7l-0.9-2.7c1.7-0.7,3.6-1,5.2-1c4,0,5.7,1.7,5.7,4.9v5.4
		C43.1,180.9,43.3,181.3,44,181.5z M39,180v-2.4h-1c-1.9,0-2.8,0.7-2.8,2c0,1.1,0.6,1.7,1.6,1.7C37.8,181.3,38.5,180.8,39,180z"/>
	<path class="st2" d="M53.5,183.8h-4.9L44.1,170h4.5l2.4,10.7l2.6-10.7h4.2L53.5,183.8z"/>
	<path class="st2" d="M70.8,178.1h-8.6c0.3,2.5,1.5,3.2,3.1,3.2c1.1,0,2.1-0.4,3.3-1.2l1.7,2.3c-1.4,1.1-3.1,1.9-5.4,1.9
		c-4.6,0-7-3-7-7.3c0-4.1,2.3-7.4,6.5-7.4c4,0,6.4,2.6,6.4,7.1C70.9,177.1,70.8,177.7,70.8,178.1z M66.8,175.5
		c0-1.9-0.6-3.2-2.2-3.2c-1.4,0-2.2,0.9-2.4,3.4h4.6V175.5z"/>
	<path class="st2" d="M88,183.2c-1,0.7-2.5,1.1-3.7,1.1c-3,0-4.5-1.7-4.5-5v-6.4h-2V170h2v-3l4.1-0.5v3.5H87l-0.4,2.9h-2.7v6.4
		c0,1.3,0.4,1.8,1.3,1.8c0.5,0,0.9-0.1,1.5-0.4L88,183.2z"/>
	<path class="st2" d="M93.9,165c0,1.3-1,2.3-2.4,2.3s-2.4-1-2.4-2.3c0-1.3,1-2.3,2.4-2.3S93.9,163.7,93.9,165z M93.5,183.8h-4.1V170
		h4.1V183.8z"/>
	<path class="st2" d="M115.6,173.7v10.1h-4.1v-9.4c0-1.5-0.5-1.8-1.2-1.8c-0.9,0-1.5,0.7-2.1,1.8v9.4h-4.1v-9.4
		c0-1.5-0.5-1.8-1.2-1.8c-0.9,0-1.5,0.7-2.1,1.8v9.4h-4.1V170h3.6l0.3,1.6c1.1-1.4,2.3-2.1,4-2.1c1.5,0,2.7,0.8,3.3,2.2
		c1.1-1.5,2.4-2.2,4.1-2.2C114.1,169.6,115.6,171.1,115.6,173.7z"/>
	<path class="st2" d="M130.7,178.1h-8.6c0.3,2.5,1.5,3.2,3.1,3.2c1.1,0,2.1-0.4,3.3-1.2l1.7,2.3c-1.4,1.1-3.1,1.9-5.4,1.9
		c-4.6,0-7-3-7-7.3c0-4.1,2.3-7.4,6.5-7.4c4,0,6.4,2.6,6.4,7.1C130.8,177.1,130.7,177.7,130.7,178.1z M126.7,175.5
		c0-1.9-0.6-3.2-2.2-3.2c-1.4,0-2.2,0.9-2.4,3.4h4.6V175.5z"/>
	<path class="st2" d="M136.9,181.9c0,0.8-0.3,1.5-0.8,2.8l-1.6,3.8h-2.3l1.1-4.6c-0.7-0.4-1-1.1-1-2c0-1.3,1-2.3,2.4-2.3
		C135.9,179.5,136.9,180.6,136.9,181.9z"/>
	<path class="st2" d="M164.4,173.7v10.1h-4.1v-9.4c0-1.5-0.5-1.8-1.2-1.8c-0.9,0-1.5,0.7-2.1,1.8v9.4h-4.1v-9.4
		c0-1.5-0.5-1.8-1.2-1.8c-0.9,0-1.5,0.7-2.1,1.8v9.4h-4.1V170h3.6l0.3,1.6c1.1-1.4,2.3-2.1,4-2.1c1.5,0,2.7,0.8,3.3,2.2
		c1.1-1.5,2.4-2.2,4.1-2.2C162.9,169.6,164.4,171.1,164.4,173.7z"/>
	<path class="st2" d="M180.3,176.9c0,4.4-2.6,7.3-6.8,7.3c-4.2,0-6.8-2.7-6.8-7.4c0-4.4,2.6-7.3,6.8-7.3
		C177.7,169.6,180.3,172.3,180.3,176.9z M171,176.9c0,3.1,0.8,4.3,2.5,4.3s2.5-1.3,2.5-4.3c0-3.1-0.8-4.3-2.5-4.3
		S171,173.9,171,176.9z"/>
	<path class="st2" d="M194.6,173.7v10.1h-4.1v-9.4c0-1.5-0.5-1.8-1.3-1.8c-0.9,0-1.7,0.7-2.4,1.8v9.4h-4.1V170h3.6l0.3,1.6
		c1.2-1.4,2.5-2.1,4.2-2.1C193.2,169.6,194.6,171.1,194.6,173.7z"/>
	<path class="st2" d="M209.7,178.1h-8.6c0.3,2.5,1.5,3.2,3.1,3.2c1.1,0,2.1-0.4,3.3-1.2l1.7,2.3c-1.4,1.1-3.1,1.9-5.4,1.9
		c-4.6,0-7-3-7-7.3c0-4.1,2.3-7.4,6.5-7.4c4,0,6.4,2.6,6.4,7.1C209.8,177.1,209.7,177.7,209.7,178.1z M205.7,175.5
		c0-1.9-0.6-3.2-2.2-3.2c-1.4,0-2.2,0.9-2.4,3.4h4.6V175.5z"/>
	<path class="st2" d="M219.5,183.8c-1.1,3.5-3.4,5.5-7.8,5.8l-0.4-2.9c2.7-0.3,3.7-1.1,4.5-2.9h-1.4l-4.2-13.8h4.4l2.5,11.2
		l2.7-11.2h4.2L219.5,183.8z"/>
	<path class="st2" d="M31.4,212.7l-0.9,2.7c-1.6-0.1-2.7-0.6-3.3-2c-1,1.5-2.5,2.1-4.2,2.1c-2.8,0-4.5-1.8-4.5-4.3
		c0-3,2.3-4.7,6.5-4.7h1.4v-0.6c0-1.6-0.7-2.1-2.3-2.1c-0.9,0-2.2,0.3-3.6,0.7l-0.9-2.7c1.7-0.7,3.6-1,5.2-1c4,0,5.7,1.7,5.7,4.9
		v5.4C30.5,212.1,30.8,212.5,31.4,212.7z M26.4,211.2v-2.4h-1c-1.9,0-2.8,0.7-2.8,2c0,1.1,0.6,1.7,1.6,1.7
		C25.2,212.6,26,212.1,26.4,211.2z"/>
	<path class="st2" d="M45.7,205v10.1h-4.1v-9.4c0-1.5-0.5-1.8-1.3-1.8c-0.9,0-1.7,0.7-2.4,1.8v9.4h-4.1v-13.8h3.6l0.3,1.6
		c1.2-1.4,2.5-2.1,4.2-2.1C44.3,200.8,45.7,202.3,45.7,205z"/>
	<path class="st2" d="M61.2,195.7v19.3h-3.6l-0.2-1.6c-0.8,1.1-2.1,2.1-3.9,2.1c-3.5,0-5.3-2.9-5.3-7.4c0-4.3,2.2-7.3,5.6-7.3
		c1.4,0,2.5,0.5,3.3,1.3v-6.8L61.2,195.7z M57.1,210.9v-6c-0.6-0.7-1.2-1.2-2.2-1.2c-1.5,0-2.5,1.2-2.5,4.3c0,3.4,0.9,4.3,2.3,4.3
		C55.7,212.5,56.4,212,57.1,210.9z"/>
	<path class="st2" d="M82.5,205v10.1h-4.1v-9.4c0-1.5-0.5-1.8-1.3-1.8c-0.9,0-1.7,0.7-2.4,1.8v9.5h-4.1v-19.3l4.1-0.4v7.4
		c1.1-1.3,2.4-1.9,4-1.9C81.1,200.8,82.5,202.3,82.5,205z"/>
	<path class="st2" d="M97.5,212.7l-0.9,2.7c-1.6-0.1-2.7-0.6-3.3-2c-1,1.5-2.5,2.1-4.2,2.1c-2.8,0-4.5-1.8-4.5-4.3
		c0-3,2.3-4.7,6.5-4.7h1.4v-0.6c0-1.6-0.7-2.1-2.3-2.1c-0.9,0-2.2,0.3-3.6,0.7l-0.9-2.7c1.7-0.7,3.6-1,5.2-1c4,0,5.7,1.7,5.7,4.9
		v5.4C96.6,212.1,96.9,212.5,97.5,212.7z M92.5,211.2v-2.4h-1c-1.9,0-2.8,0.7-2.8,2c0,1.1,0.6,1.7,1.6,1.7
		C91.3,212.6,92,212.1,92.5,211.2z"/>
	<path class="st2" d="M109.8,202.5l-1.5,2.3c-1.1-0.7-2.2-1.1-3.4-1.1c-1.1,0-1.7,0.4-1.7,1c0,0.7,0.4,1,2.8,1.8
		c2.7,0.8,4.3,1.9,4.3,4.4c0,2.9-2.7,4.6-6.1,4.6c-2.4,0-4.4-0.8-5.8-2.1l2-2.2c1,0.8,2.3,1.4,3.7,1.4c1.2,0,2-0.5,2-1.3
		c0-0.9-0.4-1.2-2.9-1.9c-2.7-0.8-4.1-2.2-4.1-4.3c0-2.4,2.2-4.2,5.6-4.2C106.7,200.8,108.5,201.4,109.8,202.5z"/>
	<path class="st2" d="M122.4,202.5l-1.5,2.3c-1.1-0.7-2.2-1.1-3.4-1.1c-1.1,0-1.7,0.4-1.7,1c0,0.7,0.4,1,2.8,1.8
		c2.7,0.8,4.3,1.9,4.3,4.4c0,2.9-2.7,4.6-6.1,4.6c-2.4,0-4.4-0.8-5.8-2.1l2-2.2c1,0.8,2.3,1.4,3.7,1.4c1.2,0,2-0.5,2-1.3
		c0-0.9-0.4-1.2-2.9-1.9c-2.7-0.8-4.1-2.2-4.1-4.3c0-2.4,2.2-4.2,5.6-4.2C119.3,200.8,121.1,201.4,122.4,202.5z"/>
	<path class="st2" d="M124.9,211.5v-15.8l4.1-0.4v16.1c0,0.6,0.2,0.9,0.7,0.9c0.3,0,0.5-0.1,0.7-0.1l0.8,2.9
		c-0.6,0.3-1.5,0.5-2.5,0.5C126.3,215.5,124.9,214.1,124.9,211.5z"/>
	<path class="st2" d="M144.4,209.4h-8.6c0.3,2.5,1.5,3.2,3.1,3.2c1.1,0,2.1-0.4,3.3-1.2l1.7,2.3c-1.4,1.1-3.1,1.9-5.4,1.9
		c-4.6,0-7-3-7-7.3c0-4.1,2.3-7.4,6.5-7.4c4,0,6.4,2.6,6.4,7.1C144.5,208.3,144.5,208.9,144.4,209.4z M140.5,206.7
		c0-1.9-0.6-3.2-2.2-3.2c-1.4,0-2.2,0.9-2.4,3.4h4.6V206.7z"/>
	<path class="st2" d="M167.9,215.1H163l-1.8-10.2l-1.8,10.2h-4.9l-2.9-13.8h4.2l1.4,10.8l2.2-10.8h4l1.9,10.8l1.7-10.8h3.9
		L167.9,215.1z"/>
	<path class="st2" d="M177,196.3c0,1.3-1,2.3-2.4,2.3s-2.4-1-2.4-2.3c0-1.3,1-2.3,2.4-2.3S177,195,177,196.3z M176.6,215.1h-4.1
		v-13.8h4.1V215.1z"/>
	<path class="st2" d="M188.5,214.4c-1,0.7-2.5,1.1-3.7,1.1c-3,0-4.5-1.7-4.5-5v-6.4h-2v-2.9h2v-3l4.1-0.5v3.5h3.2l-0.4,2.9h-2.7v6.4
		c0,1.3,0.4,1.8,1.3,1.8c0.5,0,0.9-0.1,1.5-0.4L188.5,214.4z"/>
	<path class="st2" d="M201.8,205v10.1h-4.1v-9.4c0-1.5-0.5-1.8-1.3-1.8c-0.9,0-1.7,0.7-2.4,1.8v9.5h-4.1v-19.3l4.1-0.4v7.4
		c1.1-1.3,2.4-1.9,4-1.9C200.4,200.8,201.8,202.3,201.8,205z"/>
	<path class="st2" d="M34.4,246.3h-4.9l-1.8-10.2l-1.8,10.2h-4.9L18,232.5h4.2l1.4,10.8l2.2-10.8h4l1.9,10.8l1.7-10.8h3.9
		L34.4,246.3z"/>
	<path class="st2" d="M51.5,239.4c0,4.4-2.6,7.3-6.8,7.3c-4.2,0-6.8-2.7-6.8-7.4c0-4.4,2.6-7.3,6.8-7.3
		C48.9,232,51.5,234.7,51.5,239.4z M42.2,239.4c0,3.1,0.8,4.3,2.5,4.3s2.5-1.3,2.5-4.3c0-3.1-0.8-4.3-2.5-4.3S42.2,236.4,42.2,239.4
		z"/>
	<path class="st2" d="M53.8,242.8V227l4.1-0.4v16.1c0,0.6,0.2,0.9,0.7,0.9c0.3,0,0.5-0.1,0.7-0.1l0.8,2.9c-0.6,0.3-1.5,0.5-2.5,0.5
		C55.2,246.7,53.8,245.3,53.8,242.8z"/>
	<path class="st2" d="M71.6,233.7l-1.5,2.3c-1.1-0.7-2.2-1.1-3.4-1.1c-1.1,0-1.7,0.4-1.7,1c0,0.7,0.4,1,2.8,1.8
		c2.7,0.8,4.3,1.9,4.3,4.4c0,2.9-2.7,4.6-6.1,4.6c-2.4,0-4.4-0.8-5.8-2.1l2-2.2c1,0.8,2.3,1.4,3.7,1.4c1.2,0,2-0.5,2-1.3
		c0-0.9-0.4-1.2-2.9-1.9c-2.7-0.8-4.1-2.2-4.1-4.3c0-2.4,2.2-4.2,5.6-4.2C68.5,232,70.3,232.7,71.6,233.7z"/>
	<path class="st2" d="M86.2,240.6h-8.6c0.3,2.5,1.5,3.2,3.1,3.2c1.1,0,2.1-0.4,3.3-1.2l1.7,2.3c-1.4,1.1-3.1,1.9-5.4,1.9
		c-4.6,0-7-3-7-7.3c0-4.1,2.3-7.4,6.5-7.4c4,0,6.4,2.6,6.4,7.1C86.3,239.5,86.3,240.2,86.2,240.6z M82.3,237.9
		c0-1.9-0.6-3.2-2.2-3.2c-1.4,0-2.2,0.9-2.4,3.4h4.6V237.9z"/>
	<path class="st2" d="M88.5,242.8V227l4.1-0.4v16.1c0,0.6,0.2,0.9,0.7,0.9c0.3,0,0.5-0.1,0.7-0.1l0.8,2.9c-0.6,0.3-1.5,0.5-2.5,0.5
		C89.9,246.7,88.5,245.3,88.5,242.8z"/>
	<path class="st2" d="M108,240.6h-8.6c0.3,2.5,1.5,3.2,3.1,3.2c1.1,0,2.1-0.4,3.3-1.2l1.7,2.3c-1.4,1.1-3.1,1.9-5.4,1.9
		c-4.6,0-7-3-7-7.3c0-4.1,2.3-7.4,6.5-7.4c4,0,6.4,2.6,6.4,7.1C108.1,239.5,108.1,240.2,108,240.6z M104.1,237.9
		c0-1.9-0.6-3.2-2.2-3.2c-1.4,0-2.2,0.9-2.4,3.4h4.6V237.9z"/>
	<path class="st2" d="M117.8,246.3c-1.1,3.5-3.4,5.5-7.8,5.8l-0.4-2.9c2.7-0.3,3.7-1.1,4.5-2.9h-1.4l-4.2-13.8h4.4l2.5,11.2
		l2.7-11.2h4.2L117.8,246.3z"/>
	<path class="st2" d="M126.2,244.4c0,1.3-1,2.4-2.3,2.4c-1.3,0-2.4-1.1-2.4-2.4c0-1.3,1-2.3,2.4-2.3
		C125.2,242,126.2,243.1,126.2,244.4z"/>
	<path class="st2" d="M139.1,233.7l-1.8,2.4c-0.9-0.7-1.7-1-2.6-1c-1.8,0-2.8,1.2-2.8,4.3c0,3.1,1.1,4,2.7,4c1,0,1.7-0.3,2.7-0.9
		l1.8,2.6c-1.3,1-2.8,1.6-4.7,1.6c-4.2,0-6.8-2.9-6.8-7.2c0-4.4,2.6-7.5,6.8-7.5C136.3,232,137.7,232.6,139.1,233.7z"/>
	<path class="st2" d="M153.3,239.4c0,4.4-2.6,7.3-6.8,7.3c-4.2,0-6.8-2.7-6.8-7.4c0-4.4,2.6-7.3,6.8-7.3
		C150.8,232,153.3,234.7,153.3,239.4z M144,239.4c0,3.1,0.8,4.3,2.5,4.3s2.5-1.3,2.5-4.3c0-3.1-0.8-4.3-2.5-4.3S144,236.4,144,239.4
		z"/>
	<path class="st2" d="M159.4,244.4c0,1.3-1,2.4-2.3,2.4c-1.3,0-2.4-1.1-2.4-2.4c0-1.3,1-2.3,2.4-2.3
		C158.3,242,159.4,243.1,159.4,244.4z"/>
	<path class="st2" d="M173.4,246.3h-3.6l-0.2-1.7c-1,1.5-2.4,2.2-4.2,2.2c-2.6,0-3.9-1.7-3.9-4.3v-9.9h4.1v9.4
		c0,1.4,0.5,1.8,1.3,1.8s1.6-0.6,2.2-1.6v-9.6h4.1V246.3z"/>
	<path class="st2" d="M180.7,246.3h-4.1V227l4.1-0.4V246.3z M185.1,238.5l4.5,7.8H185l-4.1-7.5l4.2-6.3h4.2L185.1,238.5z"/>
</g>
</svg>
