<?xml version="1.0" encoding="utf-8"?>
<!-- Generator: Adobe Illustrator 23.0.1, SVG Export Plug-In . SVG Version: 6.00 Build 0)  -->
<svg version="1.1" id="Layer_1" xmlns="http://www.w3.org/2000/svg" xmlns:xlink="http://www.w3.org/1999/xlink" x="0px" y="0px"
	 viewBox="0 0 923 130" style="enable-background:new 0 0 923 130;" xml:space="preserve">
<style type="text/css">
	.st0{fill:#333333;}
	.st1{fill:none;}
	.st2{enable-background:new    ;}
	.st3{fill:#FFFFFF;}
	.st4{fill:none;stroke:#FFFFFF;stroke-miterlimit:10;}
	.st5{fill:#CD2E31;}
</style>
<g>
	<rect class="st0" width="923" height="130"/>
</g>
<rect x="29.4" y="16.9" class="st1" width="491.6" height="59.1"/>
<g class="st2">
	<path class="st3" d="M34.9,32.9h6.8l-0.4,2.9h-10V18.5H35L34.9,32.9L34.9,32.9z"/>
	<path class="st3" d="M55,30.3h-8.3c0.2,2.5,1.4,3.3,3.1,3.3c1.1,0,2.1-0.4,3.2-1.2l1.5,2c-1.3,1-2.9,1.8-5,1.8
		c-4.2,0-6.5-2.8-6.5-6.9c0-4,2.1-7.1,6-7.1c3.7,0,6,2.5,6,6.7C55.1,29.3,55.1,29.9,55,30.3z M51.6,27.9c0-2-0.7-3.3-2.4-3.3
		c-1.4,0-2.3,1-2.4,3.4h4.8C51.6,28,51.6,27.9,51.6,27.9z"/>
	<path class="st3" d="M68.8,33.8L68,36.2c-1.5-0.1-2.5-0.6-3-1.9c-0.9,1.4-2.4,2-4,2c-2.6,0-4.3-1.7-4.3-4.1c0-2.9,2.2-4.5,6.1-4.5
		h1.5V27c0-1.6-0.7-2.2-2.4-2.2c-0.9,0-2.1,0.2-3.5,0.7l-0.8-2.4c1.6-0.6,3.4-1,4.9-1c3.7,0,5.2,1.6,5.2,4.6V32
		C67.8,33.2,68.1,33.6,68.8,33.8z M64.3,32.2v-2.5h-1.2c-1.9,0-2.9,0.7-2.9,2.1c0,1.2,0.6,1.8,1.7,1.8C63,33.7,63.8,33.1,64.3,32.2z
		"/>
	<path class="st3" d="M79.5,22.4l-0.6,3.4c-0.4-0.1-0.7-0.2-1.2-0.2c-1.6,0-2.4,1.2-2.8,3.3v6.8h-3.5V22.6h3.1l0.3,2.6
		c0.6-1.8,1.9-2.9,3.4-2.9C78.7,22.2,79.1,22.3,79.5,22.4z"/>
	<path class="st3" d="M92.4,26.2v9.6h-3.5v-9c0-1.5-0.5-1.9-1.4-1.9c-1,0-1.8,0.7-2.5,1.8v9.1h-3.5V22.6h3.1l0.3,1.7
		c1.1-1.3,2.3-2.1,4-2.1C91,22.2,92.4,23.7,92.4,26.2z"/>
	<path class="st3" d="M113,26.2v9.6h-3.5v-9c0-1.5-0.6-1.9-1.4-1.9c-1,0-1.8,0.7-2.5,1.8v9.2h-3.5V17.3l3.5-0.4V24
		c1-1.2,2.2-1.9,3.8-1.9C111.6,22.2,113,23.7,113,26.2z"/>
	<path class="st3" d="M128.2,29.2c0,4.2-2.4,7-6.3,7s-6.3-2.6-6.3-7c0-4.2,2.4-7,6.4-7C125.9,22.2,128.2,24.8,128.2,29.2z
		 M119.2,29.2c0,3,0.9,4.4,2.6,4.4s2.6-1.4,2.6-4.4s-0.9-4.4-2.6-4.4C120.1,24.8,119.2,26.2,119.2,29.2z"/>
	<path class="st3" d="M144.4,35.8h-4.3l-1.9-10.1l-1.9,10.1H132l-2.9-13.2h3.6l1.6,10.6l2.2-10.6h3.5l2,10.6l1.8-10.6h3.4
		L144.4,35.8z"/>
	<path class="st3" d="M162.1,35.8c-1,3.2-3.1,5.2-7.1,5.5l-0.4-2.5c2.6-0.3,3.5-1.1,4.2-2.9h-1.2l-4.1-13.2h3.8l2.6,10.9l2.8-10.9
		h3.7L162.1,35.8z"/>
	<path class="st3" d="M179.6,29.2c0,4.2-2.4,7-6.3,7c-3.9,0-6.3-2.6-6.3-7c0-4.2,2.4-7,6.4-7C177.3,22.2,179.6,24.8,179.6,29.2z
		 M170.6,29.2c0,3,0.9,4.4,2.6,4.4s2.6-1.4,2.6-4.4s-0.9-4.4-2.6-4.4C171.5,24.8,170.6,26.2,170.6,29.2z"/>
	<path class="st3" d="M193.2,35.8h-3.1l-0.2-1.8c-0.9,1.5-2.2,2.2-4,2.2c-2.4,0-3.7-1.6-3.7-4.1v-9.5h3.5v9.1c0,1.4,0.5,1.9,1.4,1.9
		c1,0,1.8-0.7,2.4-1.7v-9.3h3.5v13.2H193.2z"/>
	<path class="st3" d="M212.7,23.8l-1.5,2.1c-0.8-0.7-1.6-1-2.6-1c-1.8,0-2.8,1.3-2.8,4.3s1.1,4.1,2.8,4.1c1,0,1.6-0.3,2.6-0.9
		l1.5,2.2c-1.2,1-2.6,1.5-4.3,1.5c-3.9,0-6.4-2.7-6.4-6.9s2.4-7.1,6.3-7.1C210.1,22.2,211.5,22.7,212.7,23.8z"/>
	<path class="st3" d="M225.8,33.8l-0.7,2.3c-1.5-0.1-2.5-0.6-3-1.9c-0.9,1.4-2.4,2-4,2c-2.6,0-4.3-1.7-4.3-4.1
		c0-2.9,2.2-4.5,6.1-4.5h1.5V27c0-1.6-0.7-2.2-2.4-2.2c-0.9,0-2.1,0.2-3.5,0.7l-0.8-2.4c1.6-0.6,3.4-1,4.9-1c3.7,0,5.2,1.6,5.2,4.6
		V32C224.9,33.2,225.2,33.6,225.8,33.8z M221.4,32.2v-2.5h-1.2c-1.9,0-2.9,0.7-2.9,2.1c0,1.2,0.6,1.8,1.7,1.8
		C220.1,33.7,220.8,33.1,221.4,32.2z"/>
	<path class="st3" d="M239.5,26.2v9.6H236v-9c0-1.5-0.5-1.9-1.4-1.9c-1,0-1.8,0.7-2.5,1.8v9.1h-3.5V22.6h3.1l0.3,1.7
		c1.1-1.3,2.3-2.1,4-2.1C238.1,22.2,239.5,23.7,239.5,26.2z"/>
	<path class="st3" d="M258.2,23.8l-1.3,2c-1.1-0.7-2.1-1-3.3-1s-1.8,0.5-1.8,1.2c0,0.8,0.4,1.1,2.8,1.8c2.6,0.7,4.1,1.8,4.1,4.2
		c0,2.8-2.6,4.3-5.7,4.3c-2.3,0-4.1-0.8-5.4-1.9l1.7-2c1,0.8,2.2,1.3,3.5,1.3s2.2-0.5,2.2-1.4c0-1-0.5-1.3-2.9-2
		c-2.7-0.7-3.9-2.1-3.9-4.1c0-2.2,2-3.9,5.2-3.9C255.3,22.2,256.9,22.8,258.2,23.8z"/>
	<path class="st3" d="M272.1,33.8l-0.7,2.3c-1.5-0.1-2.5-0.6-3-1.9c-0.9,1.4-2.4,2-4,2c-2.6,0-4.3-1.7-4.3-4.1
		c0-2.9,2.2-4.5,6.1-4.5h1.5V27c0-1.6-0.7-2.2-2.4-2.2c-0.9,0-2.1,0.2-3.5,0.7l-0.8-2.4c1.6-0.6,3.4-1,4.9-1c3.7,0,5.2,1.6,5.2,4.6
		V32C271.1,33.2,271.4,33.6,272.1,33.8z M267.6,32.2v-2.5h-1.2c-1.9,0-2.9,0.7-2.9,2.1c0,1.2,0.6,1.8,1.7,1.8
		C266.3,33.7,267.1,33.1,267.6,32.2z"/>
	<path class="st3" d="M281,35.8h-4.2l-4.3-13.2h3.8l2.6,10.5l2.7-10.5h3.6L281,35.8z"/>
	<path class="st3" d="M297.7,30.3h-8.3c0.2,2.5,1.4,3.3,3.1,3.3c1.1,0,2.1-0.4,3.2-1.2l1.5,2c-1.3,1-2.9,1.8-5,1.8
		c-4.2,0-6.5-2.8-6.5-6.9c0-4,2.1-7.1,6-7.1c3.7,0,6,2.5,6,6.7C297.7,29.3,297.7,29.9,297.7,30.3z M294.2,27.9c0-2-0.7-3.3-2.4-3.3
		c-1.4,0-2.3,1-2.4,3.4h4.8V27.9z"/>
	<path class="st3" d="M314.3,35.2c-1,0.7-2.3,1-3.4,1c-2.7,0-4.1-1.6-4.1-4.5v-6.6h-2v-2.5h2v-2.9l3.5-0.4v3.3h3l-0.4,2.5h-2.7v6.5
		c0,1.3,0.4,1.8,1.3,1.8c0.5,0,0.9-0.1,1.5-0.4L314.3,35.2z"/>
	<path class="st3" d="M319.8,17.8c0,1.2-0.9,2.1-2.2,2.1c-1.3,0-2.1-0.9-2.1-2.1s0.9-2.1,2.1-2.1C318.9,15.7,319.8,16.6,319.8,17.8z
		 M319.5,35.8H316V22.6h3.5V35.8z"/>
	<path class="st3" d="M340.8,26.2v9.6h-3.5v-9c0-1.5-0.6-1.9-1.3-1.9c-1,0-1.6,0.7-2.3,1.8v9.1h-3.5v-9c0-1.5-0.6-1.9-1.3-1.9
		c-1,0-1.6,0.7-2.3,1.8v9.1H323V22.6h3.1l0.3,1.6c1-1.3,2.2-2,3.8-2c1.5,0,2.6,0.8,3.1,2.1c1-1.4,2.3-2.1,4-2.1
		C339.4,22.2,340.8,23.7,340.8,26.2z"/>
	<path class="st3" d="M355.3,30.3H347c0.2,2.5,1.4,3.3,3.1,3.3c1.1,0,2.1-0.4,3.2-1.2l1.5,2c-1.3,1-2.9,1.8-5,1.8
		c-4.2,0-6.5-2.8-6.5-6.9c0-4,2.1-7.1,6-7.1c3.7,0,6,2.5,6,6.7C355.4,29.3,355.3,29.9,355.3,30.3z M351.8,27.9c0-2-0.7-3.3-2.4-3.3
		c-1.4,0-2.3,1-2.4,3.4h4.8V27.9z"/>
	<path class="st3" d="M361.3,34.1c0,0.7-0.2,1.3-0.7,2.5l-1.6,3.6h-2.1l1-4.3c-0.6-0.4-0.9-1-0.9-1.8c0-1.2,0.9-2.1,2.1-2.1
		C360.4,31.9,361.3,32.9,361.3,34.1z"/>
	<path class="st3" d="M49,58.2v9.6h-3.5v-9c0-1.5-0.6-1.9-1.3-1.9c-1,0-1.6,0.7-2.3,1.8v9.1h-3.5v-9c0-1.5-0.6-1.9-1.3-1.9
		c-1,0-1.6,0.7-2.3,1.8v9.1h-3.5V54.6h3.1l0.3,1.6c1-1.3,2.2-2,3.8-2c1.5,0,2.6,0.8,3.1,2.1c1-1.4,2.3-2.1,4-2.1
		C47.6,54.2,49,55.7,49,58.2z"/>
	<path class="st3" d="M64.3,61.2c0,4.2-2.4,7-6.3,7s-6.3-2.6-6.3-7c0-4.2,2.4-7,6.4-7C61.9,54.2,64.3,56.8,64.3,61.2z M55.3,61.2
		c0,3,0.9,4.4,2.6,4.4s2.6-1.4,2.6-4.4s-0.9-4.4-2.6-4.4C56.2,56.8,55.3,58.2,55.3,61.2z"/>
	<path class="st3" d="M78.1,58.2v9.6h-3.5v-9c0-1.5-0.5-1.9-1.4-1.9c-1,0-1.8,0.7-2.5,1.8v9.1H67V54.6h3.1l0.3,1.7
		c1.1-1.3,2.3-2.1,4-2.1C76.7,54.2,78.1,55.7,78.1,58.2z"/>
	<path class="st3" d="M92.6,62.3h-8.3c0.2,2.5,1.4,3.3,3.1,3.3c1.1,0,2.1-0.4,3.2-1.1l1.5,2c-1.3,1-2.9,1.8-5,1.8
		c-4.2,0-6.5-2.8-6.5-6.9c0-4,2.1-7.1,6-7.1c3.7,0,6,2.5,6,6.7C92.7,61.3,92.6,61.9,92.6,62.3z M89.1,59.9c0-2-0.7-3.3-2.4-3.3
		c-1.4,0-2.3,1-2.4,3.4h4.8V59.9z"/>
	<path class="st3" d="M101.8,67.8c-1,3.2-3.1,5.2-7.1,5.5l-0.4-2.5c2.6-0.3,3.5-1.1,4.2-2.9h-1.2l-4.1-13.2H97l2.6,10.9l2.8-10.9
		h3.7L101.8,67.8z"/>
	<path class="st3" d="M125,65.8l-0.7,2.3c-1.5-0.1-2.5-0.6-3-1.9c-0.9,1.4-2.4,2-4,2c-2.6,0-4.3-1.7-4.3-4.1c0-2.9,2.2-4.5,6.1-4.5
		h1.5V59c0-1.6-0.7-2.2-2.4-2.2c-0.9,0-2.1,0.2-3.5,0.7l-0.8-2.4c1.6-0.6,3.4-1,4.9-1c3.7,0,5.2,1.6,5.2,4.6V64
		C124,65.2,124.3,65.6,125,65.8z M120.5,64.2v-2.5h-1.2c-1.9,0-2.9,0.7-2.9,2.1c0,1.2,0.6,1.8,1.7,1.8
		C119.2,65.7,120,65.1,120.5,64.2z"/>
	<path class="st3" d="M138.7,58.2v9.6h-3.5v-9c0-1.5-0.5-1.9-1.4-1.9c-1,0-1.8,0.7-2.5,1.8v9.1h-3.5V54.6h3.1l0.3,1.7
		c1.1-1.3,2.3-2.1,4-2.1C137.3,54.2,138.7,55.7,138.7,58.2z"/>
	<path class="st3" d="M153.5,49.3v18.5h-3.1l-0.2-1.6c-0.8,1.2-2,2-3.8,2c-3.3,0-5-2.8-5-7c0-4.1,2.1-7,5.4-7c1.4,0,2.4,0.5,3.2,1.3
		v-6.6L153.5,49.3z M150,64v-6c-0.6-0.8-1.3-1.2-2.3-1.2c-1.5,0-2.6,1.3-2.6,4.4c0,3.3,0.9,4.4,2.4,4.4C148.5,65.6,149.3,65,150,64z
		"/>
	<path class="st3" d="M174.2,58.2v9.6h-3.5v-9c0-1.5-0.6-1.9-1.4-1.9c-1,0-1.8,0.7-2.5,1.8v9.2h-3.5V49.3l3.5-0.4V56
		c1-1.2,2.2-1.9,3.8-1.9C172.8,54.2,174.2,55.7,174.2,58.2z"/>
	<path class="st3" d="M188.7,65.8l-0.7,2.3c-1.5-0.1-2.5-0.6-3-1.9c-0.9,1.4-2.4,2-4,2c-2.6,0-4.3-1.7-4.3-4.1
		c0-2.9,2.2-4.5,6.1-4.5h1.5V59c0-1.6-0.7-2.2-2.4-2.2c-0.9,0-2.1,0.2-3.5,0.7l-0.8-2.4c1.6-0.6,3.4-1,4.9-1c3.7,0,5.2,1.6,5.2,4.6
		V64C187.7,65.2,188,65.6,188.7,65.8z M184.2,64.2v-2.5H183c-1.9,0-2.9,0.7-2.9,2.1c0,1.2,0.6,1.8,1.7,1.8
		C182.9,65.7,183.7,65.1,184.2,64.2z"/>
	<path class="st3" d="M200.5,55.8l-1.3,2c-1.1-0.7-2.1-1-3.3-1s-1.8,0.5-1.8,1.2c0,0.8,0.4,1.1,2.8,1.8c2.6,0.7,4.1,1.8,4.1,4.2
		c0,2.7-2.6,4.3-5.7,4.3c-2.3,0-4.1-0.8-5.4-1.9l1.7-1.9c1,0.8,2.2,1.3,3.5,1.3s2.2-0.5,2.2-1.4c0-1-0.5-1.3-2.9-2
		c-2.7-0.7-3.9-2.1-3.9-4.1c0-2.2,2-3.9,5.2-3.9C197.6,54.2,199.2,54.8,200.5,55.8z"/>
	<path class="st3" d="M212.4,55.8l-1.3,2c-1.1-0.7-2.1-1-3.3-1S206,57.3,206,58c0,0.8,0.4,1.1,2.8,1.8c2.6,0.7,4.1,1.8,4.1,4.2
		c0,2.7-2.6,4.3-5.7,4.3c-2.3,0-4.1-0.8-5.4-1.9l1.7-1.9c1,0.8,2.2,1.3,3.5,1.3s2.2-0.5,2.2-1.4c0-1-0.5-1.3-2.9-2
		c-2.7-0.7-3.9-2.1-3.9-4.1c0-2.2,2-3.9,5.2-3.9C209.6,54.2,211.2,54.8,212.4,55.8z"/>
	<path class="st3" d="M215.1,64.6V49.3l3.5-0.4v15.6c0,0.6,0.2,0.9,0.7,0.9c0.3,0,0.5,0,0.7-0.1l0.7,2.5c-0.6,0.2-1.4,0.5-2.3,0.5
		C216.4,68.2,215.1,66.9,215.1,64.6z"/>
	<path class="st3" d="M233.5,62.3h-8.3c0.2,2.5,1.4,3.3,3.1,3.3c1.1,0,2.1-0.4,3.2-1.1l1.5,2c-1.3,1-2.9,1.8-5,1.8
		c-4.2,0-6.5-2.8-6.5-6.9c0-4,2.1-7.1,6-7.1c3.7,0,6,2.5,6,6.7C233.6,61.3,233.5,61.9,233.5,62.3z M230,59.9c0-2-0.7-3.3-2.4-3.3
		c-1.4,0-2.3,1-2.4,3.4h4.8L230,59.9L230,59.9z"/>
	<path class="st3" d="M256,67.8h-4.3l-1.9-10.1l-1.9,10.1h-4.3l-2.9-13.2h3.6l1.6,10.6l2.2-10.6h3.5l2,10.6l1.8-10.6h3.4L256,67.8z"
		/>
	<path class="st3" d="M264.7,49.8c0,1.2-0.9,2.1-2.2,2.1c-1.3,0-2.1-0.9-2.1-2.1c0-1.2,0.9-2.1,2.1-2.1
		C263.8,47.7,264.7,48.6,264.7,49.8z M264.3,67.8h-3.5V54.6h3.5V67.8z"/>
	<path class="st3" d="M275.7,67.2c-1,0.7-2.3,1-3.4,1c-2.7,0-4.1-1.6-4.1-4.5v-6.6h-2v-2.5h2v-2.9l3.5-0.4v3.3h3l-0.4,2.5h-2.7v6.5
		c0,1.3,0.4,1.8,1.3,1.8c0.5,0,0.9-0.1,1.5-0.4L275.7,67.2z"/>
	<path class="st3" d="M288.4,58.2v9.6h-3.5v-9c0-1.5-0.6-1.9-1.4-1.9c-1,0-1.8,0.7-2.5,1.8v9.2h-3.5V49.3l3.5-0.4V56
		c1-1.2,2.2-1.9,3.8-1.9C287,54.2,288.4,55.7,288.4,58.2z"/>
	<path class="st3" d="M311.6,67.8h-4.3l-1.9-10.1l-1.9,10.1h-4.3l-2.9-13.2h3.6l1.6,10.6l2.2-10.6h3.5l2,10.6l1.8-10.6h3.4
		L311.6,67.8z"/>
	<path class="st3" d="M328.1,61.2c0,4.2-2.4,7-6.3,7s-6.3-2.6-6.3-7c0-4.2,2.4-7,6.4-7C325.7,54.2,328.1,56.8,328.1,61.2z
		 M319.1,61.2c0,3,0.9,4.4,2.6,4.4s2.6-1.4,2.6-4.4s-0.9-4.4-2.6-4.4C320,56.8,319.1,58.2,319.1,61.2z"/>
	<path class="st3" d="M330.6,64.6V49.3l3.5-0.4v15.6c0,0.6,0.2,0.9,0.7,0.9c0.3,0,0.5,0,0.7-0.1l0.7,2.5c-0.6,0.2-1.4,0.5-2.3,0.5
		C331.9,68.2,330.6,66.9,330.6,64.6z"/>
	<path class="st3" d="M347.4,55.8l-1.3,2c-1.1-0.7-2.1-1-3.3-1c-1.2,0-1.8,0.5-1.8,1.2c0,0.8,0.4,1.1,2.8,1.8
		c2.6,0.7,4.1,1.8,4.1,4.2c0,2.7-2.6,4.3-5.7,4.3c-2.3,0-4.1-0.8-5.4-1.9l1.7-1.9c1,0.8,2.2,1.3,3.5,1.3s2.2-0.5,2.2-1.4
		c0-1-0.5-1.3-2.9-2c-2.7-0.7-3.9-2.1-3.9-4.1c0-2.2,2-3.9,5.2-3.9C344.5,54.2,346.1,54.8,347.4,55.8z"/>
	<path class="st3" d="M361.3,62.3H353c0.2,2.5,1.4,3.3,3.1,3.3c1.1,0,2.1-0.4,3.2-1.1l1.5,2c-1.3,1-2.9,1.8-5,1.8
		c-4.2,0-6.5-2.8-6.5-6.9c0-4,2.1-7.1,6-7.1c3.7,0,6,2.5,6,6.7C361.3,61.3,361.3,61.9,361.3,62.3z M357.8,59.9c0-2-0.7-3.3-2.4-3.3
		c-1.4,0-2.3,1-2.4,3.4h4.8V59.9z"/>
	<path class="st3" d="M363.8,64.6V49.3l3.5-0.4v15.6c0,0.6,0.2,0.9,0.7,0.9c0.3,0,0.5,0,0.7-0.1l0.7,2.5c-0.6,0.2-1.4,0.5-2.3,0.5
		C365.1,68.2,363.8,66.9,363.8,64.6z"/>
	<path class="st3" d="M382.2,62.3h-8.3c0.2,2.5,1.4,3.3,3.1,3.3c1.1,0,2.1-0.4,3.2-1.1l1.5,2c-1.3,1-2.9,1.8-5,1.8
		c-4.2,0-6.5-2.8-6.5-6.9c0-4,2.1-7.1,6-7.1c3.7,0,6,2.5,6,6.7C382.3,61.3,382.2,61.9,382.2,62.3z M378.7,59.9c0-2-0.7-3.3-2.4-3.3
		c-1.4,0-2.3,1-2.4,3.4h4.8V59.9z"/>
	<path class="st3" d="M391.4,67.8c-1,3.2-3.1,5.2-7.1,5.5l-0.4-2.5c2.6-0.3,3.5-1.1,4.2-2.9h-1.2l-4.1-13.2h3.8l2.6,10.9l2.8-10.9
		h3.7L391.4,67.8z"/>
	<path class="st3" d="M399.5,66.1c0,1.2-0.9,2.2-2.1,2.2s-2.1-1-2.1-2.2c0-1.1,0.9-2.1,2.1-2.1C398.6,63.9,399.5,64.9,399.5,66.1z"
		/>
	<path class="st3" d="M411.8,55.8l-1.5,2.1c-0.8-0.7-1.6-1-2.6-1c-1.8,0-2.8,1.3-2.8,4.3s1.1,4.1,2.8,4.1c1,0,1.6-0.3,2.6-0.9
		l1.5,2.2c-1.2,1-2.6,1.5-4.3,1.5c-3.9,0-6.4-2.7-6.4-6.9s2.4-7.1,6.3-7.1C409.2,54.2,410.6,54.7,411.8,55.8z"/>
	<path class="st3" d="M425.5,61.2c0,4.2-2.4,7-6.3,7s-6.3-2.6-6.3-7c0-4.2,2.4-7,6.4-7C423.1,54.2,425.5,56.8,425.5,61.2z
		 M416.5,61.2c0,3,0.9,4.4,2.6,4.4s2.6-1.4,2.6-4.4s-0.9-4.4-2.6-4.4C417.4,56.8,416.5,58.2,416.5,61.2z"/>
	<path class="st3" d="M431.3,66.1c0,1.2-0.9,2.2-2.1,2.2s-2.1-1-2.1-2.2c0-1.1,1-2.1,2.1-2.1C430.4,63.9,431.3,64.9,431.3,66.1z"/>
	<path class="st3" d="M444.8,67.8h-3.1l-0.2-1.8c-0.9,1.5-2.2,2.2-4,2.2c-2.4,0-3.7-1.6-3.7-4.1v-9.5h3.5v9.1c0,1.4,0.5,1.9,1.4,1.9
		c1,0,1.8-0.6,2.4-1.7v-9.3h3.5v13.2H444.8z"/>
	<path class="st3" d="M451.8,67.8h-3.5V49.3l3.5-0.4V67.8z M455.7,60.4l4.6,7.4h-4l-4.3-7.2l4.2-6h3.7L455.7,60.4z"/>
</g>
<g>
	<g>
		<path class="st3" d="M603.4,22.3c-12.5,0-22.6,10.1-22.6,22.6s10.1,22.6,22.6,22.6S626,57.4,626,44.9S615.9,22.3,603.4,22.3z
			 M603.4,62.9c-10,0-18-8.1-18-18s8.1-18,18-18s18,8,18,18C621.4,54.8,613.3,62.8,603.4,62.9L603.4,62.9z"/>
		<rect x="595" y="12.8" class="st3" width="16.8" height="4.6"/>
		<path class="st3" d="M608.1,43.2c-0.1-0.3-0.2-0.5-0.3-0.8l7.5-7.3l-2.2-2.2l-7.4,7.2l-0.7-0.3l-0.8-0.3l-0.9-0.1
			c-2.8,0-5,2.2-5,5s2.2,5,5,5s5-2.2,5-5c0-0.2-0.1-0.3-0.1-0.4C608.3,43.7,608.2,43.5,608.1,43.2z M601.2,44.5c0-0.4,0.1-0.7,0.3-1
			c0.4-0.7,1.1-1.1,1.8-1.1h0.1c1.1,0,2,1,2,2.1c0,0.8-0.4,1.5-1.1,1.8c-0.3,0.2-0.7,0.3-1,0.3C602.2,46.6,601.2,45.7,601.2,44.5
			L601.2,44.5z"/>
	</g>
	<g>
		<path class="st3" d="M859.7,55c-0.2-0.6-0.4-1.2-0.8-1.7c1.6-1.2,2.2-3.2,1.7-5.1c-0.2-0.6-0.5-1.2-0.9-1.8
			c1.6-1.2,2.4-3.3,1.8-5.2c-0.3-1.3-1.2-2.3-2.4-3c-0.6-0.3-1.2-0.5-1.8-0.5c0.3-2-0.6-4-2.4-5c-1.1-0.6-2.5-0.8-3.7-0.4l-7.4,2.1
			l-0.3,0.1v-9.4c0.1-3-1.7-5.3-4.5-5.9s-5.6,0.8-6.4,3.6L828.3,42l-16,4.5l0.9,3.2l18-5l4.7-21.2c0.3-1,1.6-1.5,2.6-1.3
			c0.9,0.2,1.9,0.7,1.8,2.6v13.8l0,0c-0.1,0.6,0,1.2,0.1,1.7l0,0c0.3,1.1,1,2.1,2,2.7c-1.2,2.2-0.5,5,1.7,6.3
			c-1.2,2.3-0.3,5.1,1.9,6.4l0.8,0.3l0.7,0.2c-0.2,1.2,0,2.5,0.7,3.5l-8.8,2.5l-4-1.7l-11.9,3.3l0.9,3.2l10.8-3l4,1.7l14-3.9
			l0.3-0.1l2.8-0.8C858.9,60.2,860.4,57.5,859.7,55z M843.6,39.4c-0.2-0.8,0.3-1.7,1.1-1.9l7.4-2.1c0.4-0.1,0.9-0.1,1.2,0.1
			c0.3,0.2,0.6,0.5,0.7,0.9c0.2,0.8-0.3,1.7-1.1,1.9l0,0l-7.4,2.1c-0.4,0.1-0.9,0.1-1.2-0.1C844,40.1,843.7,39.8,843.6,39.4
			L843.6,39.4L843.6,39.4z M845.2,45.7L845.2,45.7c-0.2-0.9,0.4-1.7,1.2-1.9l9.9-2.7c0.4-0.1,0.7-0.1,1.1,0l0.2,0.1
			c0.4,0.2,0.6,0.5,0.7,0.9c0.2,0.9-0.3,1.7-1.2,2l0,0l-10,2.7c-0.4,0.1-0.9,0.1-1.3-0.1C845.5,46.3,845.3,46,845.2,45.7L845.2,45.7
			z M847.6,52.8c-0.4-0.2-0.6-0.5-0.7-0.9c-0.2-0.8,0.3-1.7,1.1-1.9l0,0l7.4-2.1c0.4-0.1,0.9-0.1,1.2,0.1c0.4,0.2,0.6,0.5,0.7,0.9
			c0.2,0.8-0.3,1.7-1.1,1.9l0,0l-2.4,0.6h-0.2l-0.8,0.2l-4.1,1.1C848.4,53.1,848,53,847.6,52.8L847.6,52.8z M855.4,57.8l-2.5,0.7
			l0,0l-0.4,0.1c-0.4,0.1-0.7,0-1-0.1c-0.3-0.2-0.6-0.5-0.7-0.9l0,0c-0.2-0.8,0.3-1.7,1.1-1.9l1.9-0.5l0.9-0.2c0.3-0.1,0.6,0,0.8,0
			l0.2,0.1c0.3,0.2,0.6,0.4,0.7,0.8C856.7,56.6,856.2,57.5,855.4,57.8C855.4,57.7,855.4,57.7,855.4,57.8L855.4,57.8z"/>
	</g>
	<g>
		<g>
			<path class="st3" d="M719.3,67.6c-13.2,0-24-10.8-24-24s10.8-24,24-24s24,10.8,24,24C743.3,56.9,732.5,67.6,719.3,67.6
				 M719.3,23.7c-11,0-20,9-20,20s9,20,20,20s20-9,20-20C739.2,32.6,730.3,23.7,719.3,23.7"/>
			<path class="st3" d="M720.2,27.4c0,0.5-0.4,0.9-0.9,0.9s-0.9-0.4-0.9-0.9s0.4-0.9,0.9-0.9S720.2,26.9,720.2,27.4 M715.9,27.7
				c-0.1-0.5-0.6-0.8-1.1-0.6c-0.5,0.1-0.8,0.6-0.6,1.1c0.1,0.5,0.6,0.8,1.1,0.6C715.8,28.7,716.1,28.2,715.9,27.7 M711.9,29.1
				c-0.3-0.4-0.8-0.6-1.2-0.3c-0.4,0.3-0.6,0.8-0.3,1.2c0.3,0.4,0.8,0.6,1.2,0.3C712,30.1,712.2,29.5,711.9,29.1 M708.4,31.5
				c-0.4-0.4-0.9-0.4-1.3,0c-0.4,0.4-0.4,0.9,0,1.3c0.4,0.4,0.9,0.4,1.3,0C708.8,32.4,708.8,31.8,708.4,31.5 M705.6,34.7
				c-0.4-0.3-1-0.1-1.2,0.3c-0.2,0.4-0.1,1,0.3,1.2s1,0.1,1.2-0.3C706.2,35.5,706.1,35,705.6,34.7 M703.8,38.5
				c-0.5-0.1-1,0.2-1.1,0.6c-0.1,0.5,0.2,1,0.6,1.1c0.5,0.1,1-0.2,1.1-0.6C704.6,39.2,704.3,38.7,703.8,38.5 M703,42.7
				c-0.5,0-0.9,0.4-0.9,0.9s0.4,0.9,0.9,0.9s0.9-0.4,0.9-0.9C703.9,43.1,703.5,42.7,703,42.7 M703.3,47c-0.5,0.1-0.8,0.6-0.6,1.1
				c0.1,0.5,0.6,0.8,1.1,0.6c0.5-0.1,0.8-0.6,0.6-1.1C704.3,47.1,703.8,46.8,703.3,47 M704.7,51c-0.4,0.3-0.6,0.8-0.3,1.2
				s0.8,0.6,1.2,0.3s0.6-0.8,0.3-1.2C705.7,50.9,705.2,50.7,704.7,51 M707.1,54.5c-0.4,0.4-0.4,0.9,0,1.3c0.4,0.4,0.9,0.4,1.3,0
				c0.4-0.4,0.4-0.9,0-1.3C708.1,54.2,707.5,54.2,707.1,54.5 M710.4,57.3c-0.3,0.4-0.1,1,0.3,1.2c0.4,0.3,1,0.1,1.2-0.3
				c0.3-0.4,0.1-1-0.3-1.2C711.2,56.7,710.6,56.8,710.4,57.3 M714.2,59.1c-0.1,0.5,0.2,1,0.6,1.1c0.5,0.1,1-0.2,1.1-0.6
				c0.1-0.5-0.2-1-0.6-1.1C714.8,58.4,714.3,58.6,714.2,59.1 M718.4,59.9c0,0.5,0.4,0.9,0.9,0.9s0.9-0.4,0.9-0.9s-0.4-0.9-0.9-0.9
				C718.8,59,718.4,59.4,718.4,59.9 M722.6,59.6c0.1,0.5,0.6,0.8,1.1,0.6c0.5-0.1,0.8-0.6,0.6-1.1c-0.1-0.5-0.6-0.8-1.1-0.6
				C722.8,58.6,722.5,59.1,722.6,59.6 M726.6,58.2c0.2,0.4,0.8,0.6,1.2,0.3c0.4-0.2,0.6-0.8,0.3-1.2s-0.8-0.6-1.2-0.3
				C726.5,57.2,726.4,57.8,726.6,58.2 M730.2,55.8c0.4,0.4,0.9,0.4,1.3,0c0.4-0.4,0.4-0.9,0-1.3c-0.4-0.4-0.9-0.4-1.3,0
				C729.8,54.9,729.8,55.4,730.2,55.8 M732.9,52.6c0.4,0.2,1,0.1,1.2-0.3c0.2-0.4,0.1-1-0.3-1.2c-0.4-0.2-1-0.1-1.2,0.3
				S732.5,52.3,732.9,52.6 M734.8,48.7c0.5,0.1,1-0.2,1.1-0.6c0.1-0.5-0.2-1-0.6-1.1c-0.5-0.1-1,0.2-1.1,0.6
				C734,48.1,734.3,48.6,734.8,48.7 M735.6,44.5c0.5,0,0.9-0.4,0.9-0.9s-0.4-0.9-0.9-0.9s-0.9,0.4-0.9,0.9
				C734.7,44.1,735.1,44.5,735.6,44.5 M735.2,40.3c0.5-0.1,0.8-0.6,0.6-1.1c-0.1-0.5-0.6-0.8-1.1-0.6c-0.5,0.1-0.8,0.6-0.6,1.1
				C734.3,40.1,734.8,40.4,735.2,40.3 M733.8,36.3c0.4-0.3,0.6-0.8,0.3-1.2s-0.8-0.6-1.2-0.3s-0.6,0.8-0.3,1.2
				C732.8,36.4,733.4,36.5,733.8,36.3 M731.4,32.8c0.4-0.4,0.4-0.9,0-1.3s-0.9-0.4-1.3,0c-0.4,0.4-0.4,0.9,0,1.3 M728.2,30
				c0.3-0.4,0.1-1-0.3-1.2c-0.4-0.2-1-0.1-1.2,0.3s-0.1,1,0.3,1.2C727.4,30.6,728,30.4,728.2,30 M724.4,28.2c0.1-0.5-0.2-1-0.6-1.1
				c-0.5-0.1-1,0.2-1.1,0.6c-0.1,0.5,0.2,1,0.6,1.1C723.7,28.9,724.2,28.6,724.4,28.2"/>
			<path class="st3" d="M717.8,47.8h6.3l-0.4,2.5h-9.5V48c1.6-0.5,1.7-1.1,1.7-2.5v-1.6h-1.4v-1.7h1.4v-1.8c0-2.5,1.5-4.3,4.4-4.3
				c1.9,0,3.2,0.7,4.2,2.1l-2,1.5c-0.6-0.8-1.1-1.1-1.9-1.1c-1,0-1.5,0.7-1.5,1.9v1.8h3.8V44h-3.8v1.4
				C719.1,46.4,718.9,47.2,717.8,47.8"/>
		</g>
	</g>
	<rect x="575.3" y="79" class="st1" width="56.7" height="40"/>
	<g class="st2">
		<path class="st3" d="M593.4,81.4l-1.3,1.5c-0.9-0.7-1.7-1-2.8-1c-1.1,0-1.8,0.5-1.8,1.4c0,0.9,0.5,1.2,2.5,1.9
			c2.2,0.7,3.7,1.7,3.7,4c0,2.3-1.8,3.9-4.8,3.9c-2.1,0-3.6-0.7-4.6-1.7l1.4-1.5c0.9,0.8,1.9,1.2,3.2,1.2c1.3,0,2.1-0.6,2.1-1.7
			c0-1-0.5-1.4-2.4-2c-2.7-0.8-3.8-1.9-3.8-3.8c0-2.1,1.8-3.5,4.4-3.5C591.1,79.8,592.3,80.4,593.4,81.4z"/>
		<path class="st3" d="M603.5,91.2l-0.5,1.7c-1.1-0.1-1.8-0.5-2.2-1.4c-0.7,1-1.7,1.4-2.9,1.4c-1.9,0-3.1-1.2-3.1-3
			c0-2.1,1.6-3.2,4.4-3.2h1.1v-0.5c0-1.2-0.5-1.6-1.7-1.6c-0.6,0-1.5,0.2-2.5,0.5l-0.6-1.7c1.2-0.5,2.4-0.7,3.5-0.7
			c2.6,0,3.8,1.2,3.8,3.3v3.9C602.8,90.7,603,91,603.5,91.2z M600.3,90v-1.8h-0.8c-1.4,0-2.1,0.5-2.1,1.5c0,0.8,0.4,1.3,1.2,1.3
			C599.4,91,599.9,90.7,600.3,90z"/>
		<path class="st3" d="M610,92.6h-3l-3.1-9.5h2.8l1.9,7.5l1.9-7.5h2.6L610,92.6z"/>
		<path class="st3" d="M621.9,88.6h-6c0.2,1.8,1,2.4,2.3,2.4c0.8,0,1.5-0.3,2.3-0.8l1.1,1.4c-0.9,0.8-2.1,1.3-3.6,1.3
			c-3.1,0-4.7-2-4.7-5c0-2.9,1.5-5.1,4.3-5.1c2.7,0,4.3,1.8,4.3,4.8C622,87.9,622,88.3,621.9,88.6z M619.5,86.9
			c0-1.4-0.5-2.4-1.7-2.4c-1,0-1.6,0.7-1.8,2.5h3.5V86.9z"/>
	</g>
	<g class="st2">
		<path class="st3" d="M592.1,111.7c-0.7,0.5-1.6,0.7-2.5,0.7c-2,0-3-1.2-3-3.3v-4.8h-1.4v-1.8h1.4v-2.1l2.6-0.3v2.4h2.2l-0.3,1.8
			h-1.9v4.7c0,0.9,0.3,1.3,1,1.3c0.3,0,0.7-0.1,1.1-0.3L592.1,111.7z"/>
		<path class="st3" d="M596,99.2c0,0.8-0.6,1.5-1.6,1.5s-1.5-0.6-1.5-1.5s0.6-1.5,1.5-1.5S596,98.4,596,99.2z M595.8,112.2h-2.6
			v-9.5h2.6V112.2z"/>
		<path class="st3" d="M611.1,105.2v7h-2.6v-6.5c0-1.1-0.4-1.4-0.9-1.4c-0.7,0-1.2,0.5-1.7,1.3v6.6h-2.6v-6.5c0-1.1-0.4-1.4-0.9-1.4
			c-0.7,0-1.2,0.5-1.6,1.3v6.6h-2.6v-9.5h2.2l0.2,1.2c0.7-0.9,1.6-1.5,2.8-1.5c1.1,0,1.9,0.6,2.3,1.5c0.8-1,1.6-1.5,2.9-1.5
			C610.1,102.4,611.1,103.4,611.1,105.2z"/>
		<path class="st3" d="M621.5,108.2h-6c0.2,1.8,1,2.4,2.3,2.4c0.8,0,1.5-0.3,2.3-0.8l1.1,1.4c-0.9,0.8-2.1,1.3-3.6,1.3
			c-3.1,0-4.7-2-4.7-5c0-2.9,1.5-5.1,4.3-5.1c2.7,0,4.3,1.8,4.3,4.8C621.6,107.5,621.6,107.9,621.5,108.2z M619.1,106.5
			c0-1.4-0.5-2.4-1.7-2.4c-1,0-1.6,0.7-1.8,2.5h3.5V106.5z"/>
	</g>
	<rect x="690.3" y="79" class="st1" width="56.7" height="40"/>
	<g class="st2">
		<path class="st3" d="M708.4,81.4l-1.3,1.5c-0.9-0.7-1.7-1-2.8-1c-1.1,0-1.8,0.5-1.8,1.4c0,0.9,0.5,1.2,2.5,1.9
			c2.2,0.7,3.7,1.7,3.7,4c0,2.3-1.8,3.9-4.8,3.9c-2.1,0-3.6-0.7-4.6-1.7l1.4-1.5c0.9,0.8,1.9,1.2,3.2,1.2c1.3,0,2.1-0.6,2.1-1.7
			c0-1-0.5-1.4-2.4-2c-2.7-0.8-3.8-1.9-3.8-3.8c0-2.1,1.8-3.5,4.4-3.5C706.1,79.8,707.3,80.4,708.4,81.4z"/>
		<path class="st3" d="M718.5,91.2l-0.5,1.7c-1.1-0.1-1.8-0.5-2.2-1.4c-0.7,1-1.7,1.4-2.9,1.4c-1.9,0-3.1-1.2-3.1-3
			c0-2.1,1.6-3.2,4.4-3.2h1.1v-0.5c0-1.2-0.5-1.6-1.7-1.6c-0.6,0-1.5,0.2-2.5,0.5l-0.6-1.7c1.2-0.5,2.4-0.7,3.5-0.7
			c2.6,0,3.8,1.2,3.8,3.3v3.9C717.8,90.7,718,91,718.5,91.2z M715.3,90v-1.8h-0.8c-1.4,0-2.1,0.5-2.1,1.5c0,0.8,0.4,1.3,1.2,1.3
			C714.4,91,714.9,90.7,715.3,90z"/>
		<path class="st3" d="M725,92.6h-3l-3.1-9.5h2.8l1.9,7.5l1.9-7.5h2.6L725,92.6z"/>
		<path class="st3" d="M736.9,88.6h-6c0.2,1.8,1,2.4,2.3,2.4c0.8,0,1.5-0.3,2.3-0.8l1.1,1.4c-0.9,0.8-2.1,1.3-3.6,1.3
			c-3.1,0-4.7-2-4.7-5c0-2.9,1.5-5.1,4.3-5.1c2.7,0,4.3,1.8,4.3,4.8C737,87.9,737,88.3,736.9,88.6z M734.5,86.9
			c0-1.4-0.5-2.4-1.7-2.4c-1,0-1.6,0.7-1.8,2.5h3.5V86.9z"/>
	</g>
	<g class="st2">
		<path class="st3" d="M705.1,105.2v7h-2.6v-6.5c0-1.1-0.4-1.4-0.9-1.4c-0.7,0-1.2,0.5-1.7,1.3v6.6h-2.6v-6.5c0-1.1-0.4-1.4-0.9-1.4
			c-0.7,0-1.2,0.5-1.6,1.3v6.6h-2.6v-9.5h2.2l0.2,1.2c0.7-0.9,1.6-1.5,2.8-1.5c1.1,0,1.9,0.6,2.3,1.5c0.8-1,1.6-1.5,2.9-1.5
			C704.1,102.4,705.1,103.4,705.1,105.2z"/>
		<path class="st3" d="M716.1,107.4c0,3-1.7,5.1-4.6,5.1c-2.8,0-4.6-1.9-4.6-5.1c0-3,1.7-5.1,4.6-5.1
			C714.4,102.4,716.1,104.3,716.1,107.4z M709.6,107.4c0,2.2,0.6,3.2,1.9,3.2s1.9-1,1.9-3.2c0-2.2-0.6-3.2-1.9-3.2
			C710.3,104.3,709.6,105.2,709.6,107.4z"/>
		<path class="st3" d="M726,105.2v7h-2.6v-6.5c0-1.1-0.4-1.4-1-1.4c-0.7,0-1.3,0.5-1.8,1.3v6.6H718v-9.5h2.2l0.2,1.2
			c0.8-1,1.7-1.5,2.9-1.5C725,102.4,726,103.4,726,105.2z"/>
		<path class="st3" d="M736.5,108.2h-6c0.2,1.8,1,2.4,2.3,2.4c0.8,0,1.5-0.3,2.3-0.8l1.1,1.4c-0.9,0.8-2.1,1.3-3.6,1.3
			c-3.1,0-4.7-2-4.7-5c0-2.9,1.5-5.1,4.3-5.1c2.7,0,4.3,1.8,4.3,4.8C736.5,107.5,736.5,107.9,736.5,108.2z M734,106.5
			c0-1.4-0.5-2.4-1.7-2.4c-1,0-1.6,0.7-1.8,2.5h3.5V106.5z"/>
		<path class="st3" d="M743.1,112.2c-0.7,2.3-2.2,3.7-5.1,3.9l-0.3-1.8c1.9-0.3,2.5-0.8,3.1-2.1h-0.9l-3-9.5h2.7l1.9,7.9l2-7.9h2.6
			L743.1,112.2z"/>
	</g>
	<rect x="806.3" y="79" class="st1" width="56.7" height="40"/>
	<g class="st2">
		<path class="st3" d="M824.4,81.4l-1.3,1.5c-0.9-0.7-1.7-1-2.8-1c-1.1,0-1.8,0.5-1.8,1.4c0,0.9,0.5,1.2,2.5,1.9
			c2.2,0.7,3.7,1.7,3.7,4c0,2.3-1.8,3.9-4.8,3.9c-2.1,0-3.6-0.7-4.6-1.7l1.4-1.5c0.9,0.8,1.9,1.2,3.2,1.2c1.3,0,2.1-0.6,2.1-1.7
			c0-1-0.5-1.4-2.4-2c-2.7-0.8-3.8-1.9-3.8-3.8c0-2.1,1.8-3.5,4.4-3.5C822.1,79.8,823.3,80.4,824.4,81.4z"/>
		<path class="st3" d="M834.5,91.2l-0.5,1.7c-1.1-0.1-1.8-0.5-2.2-1.4c-0.7,1-1.7,1.4-2.9,1.4c-1.9,0-3.1-1.2-3.1-3
			c0-2.1,1.6-3.2,4.4-3.2h1.1v-0.5c0-1.2-0.5-1.6-1.7-1.6c-0.6,0-1.5,0.2-2.5,0.5l-0.6-1.7c1.2-0.5,2.4-0.7,3.5-0.7
			c2.6,0,3.8,1.2,3.8,3.3v3.9C833.8,90.7,834,91,834.5,91.2z M831.3,90v-1.8h-0.8c-1.4,0-2.1,0.5-2.1,1.5c0,0.8,0.4,1.3,1.2,1.3
			C830.4,91,830.9,90.7,831.3,90z"/>
		<path class="st3" d="M841,92.6h-3l-3.1-9.5h2.8l1.9,7.5l1.9-7.5h2.6L841,92.6z"/>
		<path class="st3" d="M852.9,88.6h-6c0.2,1.8,1,2.4,2.3,2.4c0.8,0,1.5-0.3,2.3-0.8l1.1,1.4c-0.9,0.8-2.1,1.3-3.6,1.3
			c-3.1,0-4.7-2-4.7-5c0-2.9,1.5-5.1,4.3-5.1c2.7,0,4.3,1.8,4.3,4.8C853,87.9,853,88.3,852.9,88.6z M850.5,86.9
			c0-1.4-0.5-2.4-1.7-2.4c-1,0-1.6,0.7-1.8,2.5h3.5V86.9z"/>
	</g>
	<g class="st2">
		<path class="st3" d="M817.5,105.2v7H815v-6.5c0-1.1-0.4-1.4-1-1.4c-0.7,0-1.3,0.5-1.8,1.3v6.6h-2.6V98.8l2.6-0.3v5.1
			c0.8-0.9,1.6-1.4,2.8-1.4C816.5,102.4,817.5,103.4,817.5,105.2z"/>
		<path class="st3" d="M828,110.8l-0.5,1.7c-1.1-0.1-1.8-0.5-2.2-1.4c-0.7,1-1.7,1.4-2.9,1.4c-1.9,0-3.1-1.2-3.1-3
			c0-2.1,1.6-3.2,4.4-3.2h1.1v-0.5c0-1.2-0.5-1.6-1.7-1.6c-0.6,0-1.5,0.2-2.5,0.5l-0.6-1.7c1.2-0.5,2.4-0.7,3.5-0.7
			c2.6,0,3.8,1.2,3.8,3.3v3.9C827.3,110.3,827.5,110.6,828,110.8z M824.8,109.6v-1.8h-0.8c-1.4,0-2.1,0.5-2.1,1.5
			c0,0.8,0.4,1.3,1.2,1.3C823.8,110.6,824.4,110.3,824.8,109.6z"/>
		<path class="st3" d="M836.4,103.5l-1,1.5c-0.8-0.5-1.5-0.8-2.4-0.8c-0.8,0-1.3,0.3-1.3,0.9c0,0.6,0.3,0.8,2,1.3c1.9,0.5,3,1.3,3,3
			c0,2-1.9,3.1-4.1,3.1c-1.7,0-3-0.6-3.9-1.4l1.3-1.4c0.7,0.6,1.6,0.9,2.6,0.9s1.6-0.4,1.6-1c0-0.7-0.3-1-2.1-1.4
			c-1.9-0.5-2.8-1.5-2.8-2.9c0-1.6,1.5-2.8,3.8-2.8C834.4,102.4,835.5,102.8,836.4,103.5z"/>
		<path class="st3" d="M845.1,103.5l-1,1.5c-0.8-0.5-1.5-0.8-2.4-0.8c-0.8,0-1.3,0.3-1.3,0.9c0,0.6,0.3,0.8,2,1.3c1.9,0.5,3,1.3,3,3
			c0,2-1.9,3.1-4.1,3.1c-1.7,0-3-0.6-3.9-1.4l1.3-1.4c0.7,0.6,1.6,0.9,2.6,0.9s1.6-0.4,1.6-1c0-0.7-0.3-1-2.1-1.4
			c-1.9-0.5-2.8-1.5-2.8-2.9c0-1.6,1.5-2.8,3.8-2.8C843,102.4,844.2,102.8,845.1,103.5z"/>
		<path class="st3" d="M847,109.9v-11l2.6-0.3v11.3c0,0.4,0.2,0.6,0.5,0.6c0.2,0,0.4,0,0.5-0.1l0.5,1.8c-0.4,0.2-1,0.3-1.6,0.3
			C847.9,112.5,847,111.5,847,109.9z"/>
		<path class="st3" d="M860.2,108.2h-6c0.2,1.8,1,2.4,2.3,2.4c0.8,0,1.5-0.3,2.3-0.8l1.1,1.4c-0.9,0.8-2.1,1.3-3.6,1.3
			c-3.1,0-4.7-2-4.7-5c0-2.9,1.5-5.1,4.3-5.1c2.7,0,4.3,1.8,4.3,4.8C860.3,107.5,860.2,107.9,860.2,108.2z M857.7,106.5
			c0-1.4-0.5-2.4-1.7-2.4c-1,0-1.6,0.7-1.8,2.5h3.5V106.5z"/>
	</g>
	<line class="st4" x1="657" y1="13" x2="657" y2="115"/>
	<line class="st4" x1="774.5" y1="13" x2="774.5" y2="115"/>
</g>
<g>
	<g>
		<path class="st5" d="M178,118c0,0.6-0.4,1-1,1H30c-0.5,0-1-0.4-1-1V84c0-0.6,0.5-1,1-1h147c0.6,0,1,0.4,1,1V118z"/>
	</g>
	<g>
		<circle class="st3" cx="162.4" cy="102" r="8.4"/>
		<polygon class="st0" points="167.9,102.1 162.5,97.2 158.8,97.2 163.1,102.1 158.8,106.9 162.9,106.9 		"/>
	</g>
</g>
<g>
	<path class="st3" d="M47.5,105.9h-3.1l-1.3-7.8l-1.3,7.8h-3.1L37,95.7h2.4l1,8.4l1.4-8.4h2.5l1.3,8.4l1.2-8.4h2.3L47.5,105.9z"/>
	<path class="st3" d="M56.5,104.6l-0.5,1.5c-0.9-0.1-1.5-0.4-1.9-1.1c-0.6,0.9-1.4,1.2-2.4,1.2c-1.6,0-2.5-1-2.5-2.4
		c0-1.7,1.3-2.6,3.7-2.6h0.8v-0.3c0-0.9-0.4-1.2-1.3-1.2c-0.5,0-1.3,0.1-2,0.4l-0.5-1.5c1-0.4,2.1-0.6,2.9-0.6c2.3,0,3.2,1,3.2,2.8
		v3C56,104.2,56.2,104.4,56.5,104.6z M53.7,103.7v-1.4h-0.6c-1.1,0-1.6,0.4-1.6,1.1c0,0.6,0.3,1,0.9,1
		C53,104.5,53.4,104.2,53.7,103.7z"/>
	<path class="st3" d="M62.8,105.5c-0.6,0.4-1.4,0.6-2.1,0.6c-1.7,0-2.6-1-2.6-2.8v-3.6H57v-1.6h1.1v-1.7l2.3-0.3v2h1.8L62,99.7h-1.5
		v3.6c0,0.8,0.3,1,0.7,1c0.3,0,0.5-0.1,0.8-0.3L62.8,105.5z"/>
	<path class="st3" d="M69.5,98.8l-1,1.4c-0.5-0.4-1-0.6-1.5-0.6c-1,0-1.6,0.7-1.6,2.4c0,1.7,0.6,2.3,1.5,2.3c0.6,0,0.9-0.2,1.5-0.5
		l1,1.4c-0.7,0.6-1.6,0.9-2.6,0.9c-2.4,0-3.9-1.6-3.9-4.1s1.5-4.2,3.8-4.2C67.9,97.8,68.7,98.1,69.5,98.8z"/>
	<path class="st3" d="M77.2,100.2v5.7h-2.3v-5.3c0-0.8-0.3-1-0.7-1c-0.5,0-0.9,0.4-1.4,1v5.4h-2.3V95l2.3-0.2V99
		c0.6-0.7,1.3-1.1,2.3-1.1C76.4,97.8,77.2,98.7,77.2,100.2z"/>
	<path class="st3" d="M89.7,102c0,2.5-1.4,4.2-3.8,4.2s-3.8-1.5-3.8-4.2c0-2.5,1.4-4.2,3.8-4.2C88.2,97.8,89.7,99.3,89.7,102z
		 M84.4,102c0,1.7,0.5,2.5,1.4,2.5s1.4-0.8,1.4-2.4c0-1.7-0.5-2.5-1.4-2.5S84.4,100.3,84.4,102z"/>
	<path class="st3" d="M97.7,105.9h-2l-0.1-1c-0.6,0.8-1.3,1.2-2.4,1.2c-1.5,0-2.2-0.9-2.2-2.5V98h2.3v5.3c0,0.8,0.3,1,0.8,1
		s0.9-0.3,1.3-0.9V98h2.3L97.7,105.9L97.7,105.9z"/>
	<path class="st3" d="M104.5,97.9l-0.4,2.3c-0.3-0.1-0.4-0.1-0.7-0.1c-1,0-1.4,0.7-1.6,1.9v3.9h-2.3v-7.8h2l0.2,1.5
		c0.4-1.1,1.1-1.7,2-1.7C104,97.8,104.3,97.9,104.5,97.9z"/>
	<path class="st3" d="M113.2,105.9h-2.8l-2.5-7.8h2.5l1.4,6.1l1.4-6.1h2.4L113.2,105.9z"/>
	<path class="st3" d="M119,95.3c0,0.8-0.6,1.3-1.4,1.3s-1.4-0.6-1.4-1.3c0-0.8,0.6-1.3,1.4-1.3C118.4,93.9,119,94.5,119,95.3z
		 M118.8,105.9h-2.3v-7.8h2.3V105.9z"/>
	<path class="st3" d="M127.6,95v10.9h-2.1l-0.1-0.9c-0.5,0.6-1.2,1.2-2.2,1.2c-2,0-3-1.6-3-4.2c0-2.4,1.3-4.1,3.2-4.1
		c0.8,0,1.4,0.3,1.9,0.7v-3.8L127.6,95z M125.3,103.5v-3.4c-0.4-0.4-0.7-0.7-1.2-0.7c-0.8,0-1.4,0.7-1.4,2.5c0,1.9,0.5,2.5,1.3,2.5
		C124.5,104.4,124.9,104.1,125.3,103.5z"/>
	<path class="st3" d="M136.2,102.7h-4.8c0.2,1.4,0.8,1.8,1.8,1.8c0.6,0,1.2-0.2,1.9-0.7l1,1.3c-0.8,0.6-1.8,1.1-3,1.1
		c-2.6,0-3.9-1.7-3.9-4.1c0-2.3,1.3-4.2,3.7-4.2c2.2,0,3.6,1.5,3.6,4C136.3,102.1,136.2,102.4,136.2,102.7z M134,101.2
		c0-1.1-0.3-1.8-1.3-1.8c-0.8,0-1.2,0.5-1.3,1.9L134,101.2L134,101.2z"/>
	<path class="st3" d="M144.8,102c0,2.5-1.4,4.2-3.8,4.2c-2.4,0-3.8-1.5-3.8-4.2c0-2.5,1.4-4.2,3.8-4.2
		C143.3,97.8,144.8,99.3,144.8,102z M139.5,102c0,1.7,0.5,2.5,1.4,2.5s1.4-0.8,1.4-2.4c0-1.7-0.5-2.5-1.4-2.5
		C140,99.5,139.5,100.3,139.5,102z"/>
</g>
</svg>
